<svg version="1.1" id="Layer_1" xmlns="http://www.w3.org/2000/svg" xmlns:xlink="http://www.w3.org/1999/xlink" x="0px" y="0px"
	 width="100%" viewBox="0 0 994 153" enable-background="new 0 0 994 153" xml:space="preserve">
<path fill="#040404" opacity="1.000000" stroke="none" 
	d="
M1.338151,152.248810 
	C1.000000,102.843559 1.029973,53.687050 0.924198,4.530837 
	C0.917970,1.636713 1.398326,0.911925 4.467895,0.912792 
	C333.399445,1.005734 662.331055,1.005368 991.262634,0.920472 
	C994.414734,0.919658 995.085083,1.666112 995.077942,4.761233 
	C994.966675,53.084259 994.953491,101.407753 995.095459,149.730621 
	C995.105835,153.283417 994.431213,154.101913 990.770813,154.100403 
	C724.493042,153.990311 458.215179,154.000000 191.468658,154.000000 
	C189.402557,152.315277 187.110153,153.463623 185.001373,152.371063 
	C184.398895,151.701965 184.203857,151.225616 184.072876,150.320282 
	C184.396439,146.354080 185.139114,142.840683 185.864838,138.946411 
	C186.299713,137.187851 186.827789,135.806091 186.108246,133.995056 
	C186.116592,125.384377 182.396591,118.142517 179.663910,110.698662 
	C177.016174,103.486252 171.233978,98.823608 164.668564,95.269272 
	C154.634949,89.837318 154.327713,87.658920 163.230850,80.132835 
	C166.378113,77.472366 168.660080,74.259949 170.181122,70.514954 
	C180.420273,45.305016 164.067703,24.000090 140.927002,21.666927 
	C129.755859,20.540594 115.210510,31.115477 111.701408,42.184368 
	C109.909630,47.836262 109.709572,53.731380 110.192657,59.492313 
	C110.817688,66.946045 114.280098,73.109276 120.829063,77.266525 
	C127.263550,81.351105 133.158981,86.428101 141.313553,87.034897 
	C144.017456,87.236115 146.620132,86.771164 149.270569,86.770050 
	C154.847321,86.767708 156.464371,88.983498 154.831650,94.268234 
	C153.688431,97.968536 151.928757,101.352951 149.588913,104.430511 
	C142.917862,113.204865 135.151764,113.333000 128.023071,104.755386 
	C126.323265,102.710114 124.977959,100.380943 123.030212,98.526428 
	C118.062485,93.796501 110.984917,93.781044 105.925133,98.411995 
	C104.510925,99.706352 104.131287,101.109352 104.630913,102.884773 
	C108.833511,117.818466 123.605179,137.428436 144.127441,135.754379 
	C147.398010,135.487595 151.834732,134.113235 153.292664,139.755768 
	C153.449402,142.337631 154.194794,144.431488 154.352127,147.055054 
	C154.474823,148.407791 154.324799,149.302444 153.993347,150.647552 
	C152.948318,152.939728 151.252213,152.979584 149.562805,152.979935 
	C113.252106,152.987473 76.941391,153.050949 40.630726,152.948761 
	C39.790012,152.946396 38.975113,152.798111 37.909897,152.062592 
	C35.629616,147.433197 36.950005,143.256653 38.435612,139.227951 
	C39.485470,136.380936 42.200920,135.739441 45.002659,135.649780 
	C48.640968,135.533371 52.283318,135.706467 55.884678,134.823853 
	C73.550362,130.494431 82.994362,118.121040 88.425743,101.407196 
	C88.261856,97.765381 85.378593,97.882912 82.979675,96.878098 
	C77.422821,94.483261 73.021873,95.288101 68.707169,99.339928 
	C64.289917,103.488045 59.162014,106.857773 53.398651,109.810715 
	C52.545135,109.988060 52.047878,109.997787 51.183102,109.869537 
	C45.277874,105.680840 40.940361,100.358231 37.024193,94.848640 
	C34.519623,91.324997 32.637875,91.789268 29.795292,93.773560 
	C15.385345,103.832603 7.312517,117.484322 6.374651,135.125900 
	C6.101383,140.266174 6.238611,145.427216 6.781801,150.942719 
	C6.581514,151.568695 6.459791,151.808044 6.025577,152.310242 
	C4.357532,153.080780 3.010871,153.112671 1.338151,152.248810 
z"/>
<path fill="#888888" opacity="1.000000" stroke="none" 
	d="
M1.000000,152.500000 
	C2.322603,151.908875 3.645205,151.817749 5.346135,151.854446 
	C5.977376,151.814255 6.230290,151.646255 6.875046,151.245697 
	C12.984802,149.802658 18.772890,150.565338 24.526396,150.456573 
	C28.652580,150.378540 32.763809,150.375702 37.250301,149.662720 
	C37.860455,152.286118 39.696590,151.945419 41.325970,151.945465 
	C77.581474,151.946457 113.836983,151.950836 150.092468,151.922318 
	C151.132141,151.921494 152.524185,152.424728 153.101410,150.356201 
	C153.519363,149.870682 153.793808,149.794540 154.480316,149.828049 
	C161.077057,151.302856 167.340347,150.304688 174.005188,150.544769 
	C177.771469,150.716263 181.186493,149.903641 184.765823,151.706757 
	C187.021637,152.401520 189.369080,150.784378 190.885956,153.632156 
	C128.995636,154.000000 66.991280,154.008728 4.986992,153.939911 
	C3.694297,153.938477 1.895429,155.061844 1.000000,152.500000 
z"/>
<path fill="#EBEBEB" opacity="1.000000" stroke="none" 
	d="
M614.500000,30.580711 
	C622.499451,44.460217 617.804199,57.875484 602.568970,65.524727 
	C596.870361,68.385895 596.875244,68.382690 600.487305,73.871140 
	C606.439087,82.914597 612.457275,91.915550 618.304993,101.025848 
	C622.047119,106.855858 627.146118,110.346169 634.014587,111.413155 
	C635.792908,111.689400 638.715515,111.493011 638.214966,114.424286 
	C637.787109,116.930069 635.192810,115.961769 633.551880,115.853752 
	C627.394836,115.448418 621.239685,114.920914 615.103821,115.874718 
	C611.823242,116.384674 609.907043,115.091568 608.232544,112.308868 
	C601.621582,101.322289 594.842224,90.436363 588.057434,79.555450 
	C585.168762,74.922829 581.835876,70.987396 575.645935,70.669266 
	C572.412537,70.503090 571.142151,71.209129 571.222351,74.648743 
	C571.420471,83.141006 571.202454,91.642319 571.346680,100.136681 
	C571.474060,107.635674 573.349121,109.588249 580.791687,111.266541 
	C582.866272,111.734375 586.625854,111.085144 586.309937,114.096565 
	C585.946228,117.564163 582.252075,115.965210 580.097412,115.834961 
	C569.101074,115.170288 558.127686,115.278954 547.138550,115.926842 
	C545.406433,116.028954 542.586060,117.076614 542.262756,114.136513 
	C541.980042,111.565849 544.677002,111.876602 546.325195,111.513390 
	C555.727417,109.441467 556.807068,108.428490 556.866516,98.925056 
	C556.997803,77.933792 556.979431,56.940876 556.884216,35.949257 
	C556.843323,26.936586 555.489563,25.514648 546.588135,23.628296 
	C545.454468,23.388052 544.304382,23.161402 543.221558,22.765364 
	C542.388794,22.460787 541.943237,21.700989 542.063171,20.775524 
	C542.185120,19.835190 542.858337,19.332603 543.729309,19.193180 
	C544.544250,19.062723 545.392334,18.976978 546.209961,19.049772 
	C559.692078,20.250053 573.171204,19.120811 586.651489,19.105780 
	C597.244202,19.093966 607.271179,21.157677 614.500000,30.580711 
z"/>
<path fill="#EBEBEB" opacity="1.000000" stroke="none" 
	d="
M152.309845,140.279236 
	C151.912842,136.782501 149.853561,137.145782 147.526382,137.316040 
	C136.300583,138.137329 126.069305,135.486008 117.910179,127.403885 
	C111.714928,121.267097 106.990425,114.022247 103.893257,105.790421 
	C101.352524,99.037544 101.328850,99.046448 107.515350,95.907951 
	C116.002426,91.602325 119.581047,92.354019 125.680763,99.646904 
	C127.704758,102.066811 129.586700,104.673203 131.932053,106.742798 
	C137.089798,111.294121 141.520905,110.951576 146.366669,106.128952 
	C150.590347,101.925423 152.375870,96.408409 154.604782,91.123138 
	C155.347000,89.363152 154.295578,88.566566 152.853943,88.389534 
	C151.057556,88.168930 149.189041,88.061256 147.406998,88.306618 
	C144.548340,88.700203 141.697601,88.681007 138.976379,87.952026 
	C128.821991,85.231750 119.617180,80.389130 113.395203,71.896759 
	C102.457344,56.967678 109.226685,33.198788 125.588486,24.753824 
	C137.141479,18.790880 147.935638,19.158884 158.441299,26.331526 
	C169.697968,34.016926 175.539383,44.362556 174.238953,58.574718 
	C173.321793,68.598328 170.041061,76.791275 161.820053,83.000023 
	C156.541153,86.986816 156.662064,90.325531 162.321320,92.759636 
	C180.187134,100.443954 184.885406,116.002205 187.248535,133.516922 
	C186.969437,135.064255 187.010635,136.188995 186.951477,137.645508 
	C187.311752,141.878510 185.982483,145.517059 185.093353,149.611343 
	C179.590179,151.735260 174.175858,150.212585 168.805481,150.034393 
	C166.556534,149.959747 164.222443,149.488464 161.521454,149.157150 
	C157.878601,146.623657 155.313477,143.497955 152.309845,140.279236 
z"/>
<path fill="#E9E9E9" opacity="1.000000" stroke="none" 
	d="
M16.271967,24.804470 
	C21.794998,24.868383 26.046843,21.999725 29.755833,19.144075 
	C35.744568,14.533187 42.039463,10.413411 48.158298,6.020649 
	C49.393444,5.133926 49.893990,6.082736 50.740940,6.221559 
	C57.482105,7.326501 63.236301,10.476144 68.537300,14.643818 
	C72.975464,18.133123 77.242218,21.943720 83.000000,23.224257 
	C84.507835,23.559603 85.076645,24.542097 85.283066,26.051373 
	C86.452988,34.605526 87.711479,43.147568 88.912735,51.505318 
	C87.503624,52.510616 86.685646,51.726826 85.900887,51.231209 
	C77.548447,45.956169 68.252937,44.115753 58.602974,42.613163 
	C46.127144,40.670567 33.816998,41.598423 21.417837,42.419632 
	C19.422579,42.551785 18.325018,43.034874 18.336632,45.263683 
	C18.367012,51.093163 18.343662,56.925144 18.190035,62.752129 
	C18.137915,64.729050 19.017899,65.464249 20.766052,65.533981 
	C38.364384,66.235947 55.990311,68.557701 73.514801,64.699150 
	C78.934402,63.505852 83.199715,59.696583 88.401215,57.877953 
	C89.280022,63.612049 87.155006,67.459747 81.599670,70.225784 
	C71.928505,75.041122 61.599667,74.364647 51.283875,73.789848 
	C40.987671,73.216156 30.688150,72.700653 20.393799,72.096352 
	C18.814405,72.003632 18.309246,72.614952 18.345142,74.076393 
	C18.398304,76.240868 18.483957,78.414879 18.338022,80.570084 
	C18.248516,81.891953 19.239624,83.961830 17.226454,84.320198 
	C15.694011,84.592995 15.670598,82.491096 14.911724,81.489807 
	C10.356812,75.479874 10.750976,68.259056 9.815673,61.351830 
	C8.849675,54.217915 8.813514,47.141434 9.711040,39.953159 
	C10.430079,34.194370 13.782263,30.026241 16.603882,25.048252 
	C16.393152,24.769962 16.200251,24.902699 16.271967,24.804470 
z"/>
<path fill="#F7F7F7" opacity="1.000000" stroke="none" 
	d="
M797.158081,59.437199 
	C796.438110,59.988728 795.985779,60.397427 795.233093,60.870781 
	C790.690430,64.293343 795.452942,64.161476 796.973145,65.516785 
	C798.273315,66.125023 799.265381,66.622040 800.574707,67.243347 
	C802.158447,68.065109 803.445129,68.728027 804.890137,69.732330 
	C805.624207,70.188805 806.105164,70.466324 806.758667,70.966309 
	C808.546204,72.480530 810.011475,73.923378 811.508911,75.813469 
	C811.703979,76.096230 812.055603,76.349846 812.100830,76.561821 
	C817.880676,85.737801 815.142578,100.950089 806.244446,108.511871 
	C805.918945,108.763008 805.709961,109.107788 805.515259,109.159950 
	C796.437378,115.389717 786.647217,116.168060 776.090942,115.362999 
	C764.403381,114.471672 752.598389,114.421898 740.864929,115.557945 
	C740.063232,115.635567 739.264465,115.959244 738.430542,115.924744 
	C737.220154,115.874687 735.949341,115.644684 735.707520,114.273598 
	C735.448425,112.803902 736.617798,112.303207 737.838623,112.086502 
	C738.654175,111.941750 739.462158,111.736458 740.273682,111.613503 
	C745.962646,110.751572 749.155884,107.601631 749.540405,101.323540 
	C749.545044,100.483025 749.497925,100.073959 749.542114,99.367310 
	C750.459656,90.779274 749.898560,82.467621 749.974609,74.166870 
	C750.082764,62.364998 749.992859,50.561386 750.007507,38.758541 
	C750.012268,34.919716 749.377930,31.217573 747.621338,27.280096 
	C747.071045,26.667923 746.760864,26.455460 746.254150,26.039703 
	C742.797729,23.685814 738.920776,23.542305 734.948486,22.416544 
	C733.292236,21.330561 733.423889,20.424646 735.053345,19.499912 
	C736.369812,19.625082 737.254150,18.911602 738.584351,19.238560 
	C740.967407,19.338789 742.997070,19.356718 745.439209,19.510521 
	C753.671326,20.321918 761.498047,20.025408 769.727966,19.700642 
	C771.505676,19.451565 772.879517,19.317425 774.664185,19.256567 
	C777.635437,18.877642 780.192017,18.767187 783.168518,19.444016 
	C784.192749,19.448971 784.788147,19.428942 785.657959,19.531908 
	C791.276489,20.482014 796.366882,21.951653 800.999390,25.619516 
	C801.349182,25.772537 801.729492,25.884634 801.824829,26.058414 
	C802.842590,26.878073 803.663635,27.630085 804.526855,28.813759 
	C804.718201,29.089237 805.064514,29.329268 805.114746,29.533863 
	C809.029907,36.144699 810.795044,42.701473 806.487915,50.095642 
	C805.706299,51.537800 805.031738,52.570194 804.092773,53.770210 
	C803.132507,54.836731 802.362061,55.663147 801.195923,56.573189 
	C800.924683,56.777691 800.761658,57.134369 800.575867,57.197044 
	C799.131042,57.543186 798.490417,58.727665 797.158081,59.437199 
z"/>
<path fill="#FCFCFC" opacity="1.000000" stroke="none" 
	d="
M990.422974,61.767570 
	C990.674133,62.545086 990.776550,62.968014 990.834351,63.716904 
	C992.645874,94.005898 971.550110,114.518234 943.268616,115.070610 
	C926.952881,115.389282 910.650940,114.554779 894.342896,115.005753 
	C893.512878,115.028709 892.667175,115.201897 891.855408,114.977150 
	C891.063782,114.757973 890.176697,114.491501 890.137512,113.470345 
	C890.107910,112.698936 890.806885,112.289436 891.409729,112.196548 
	C902.289673,110.520081 902.270569,102.789070 902.115295,94.221130 
	C901.759033,74.561470 902.013123,54.890930 901.997192,35.224823 
	C901.991089,27.626184 900.370483,25.660677 892.910706,23.946655 
	C891.161072,23.544643 889.337952,23.258581 887.852905,21.598410 
	C888.806763,19.738508 890.551575,20.023495 892.071655,20.026184 
	C909.736389,20.057440 927.401611,19.859734 945.505920,20.209408 
	C946.681335,20.303656 947.416748,20.302919 948.500488,20.428276 
	C960.064575,22.851196 970.253113,27.180458 978.672485,35.772430 
	C979.907166,37.100777 980.893127,38.158821 982.009766,39.500381 
	C982.929199,41.031021 983.617310,42.340294 984.655273,43.803898 
	C985.272278,44.728664 985.699768,45.400105 986.183350,46.366028 
	C988.035156,51.454716 989.821899,56.251377 990.422974,61.767570 
z"/>
<path fill="#E7E7E7" opacity="1.000000" stroke="none" 
	d="
M509.236847,72.550583 
	C512.260071,80.902573 515.166504,88.879448 518.032043,96.871010 
	C520.791931,104.568062 525.357361,110.249084 533.985352,111.629570 
	C535.395142,111.855141 537.287964,112.146286 537.131836,114.156876 
	C536.936523,116.672981 534.710510,116.116104 533.229248,116.008614 
	C521.416748,115.151527 509.614410,115.275078 497.804321,116.018143 
	C496.244507,116.116280 494.090118,116.576271 493.873810,114.159538 
	C493.659088,111.760368 495.779175,111.909760 497.384827,111.626465 
	C505.955231,110.114334 507.075897,108.351433 504.424896,100.286324 
	C502.345825,93.961174 499.985535,87.722672 498.098969,81.342529 
	C497.167511,78.192421 495.494568,77.120522 492.361389,77.184624 
	C485.537872,77.324242 478.708496,77.291954 471.883606,77.189781 
	C469.441193,77.153206 467.767303,77.761024 466.893097,80.271408 
	C464.540009,87.028511 461.890137,93.685295 459.655182,100.479637 
	C457.435120,107.228783 459.170746,109.892387 466.168488,111.454926 
	C467.850677,111.830551 470.419739,111.539558 470.290253,114.066185 
	C470.149384,116.814728 467.619232,115.988937 465.952393,115.889526 
	C456.969086,115.353729 447.997040,115.111130 439.016815,115.986244 
	C437.659668,116.118484 435.722107,116.637497 435.447693,114.418068 
	C435.199249,112.408508 436.929108,111.929054 438.391663,111.716141 
	C446.005585,110.607697 449.630615,105.317787 452.271942,98.848747 
	C462.779816,73.113495 473.319885,47.391357 483.874908,21.675388 
	C484.601898,19.904137 484.805145,17.330862 487.288574,17.269150 
	C490.121307,17.198759 490.322418,19.971205 491.023438,21.908604 
	C497.082825,38.654377 503.083771,55.421288 509.236847,72.550583 
z"/>
<path fill="#EBEBEB" opacity="1.000000" stroke="none" 
	d="
M321.483551,63.758224 
	C321.537415,61.814610 321.606628,60.285641 321.796844,58.388840 
	C322.000244,57.229366 321.993744,56.429314 322.216827,55.354546 
	C322.415527,53.619282 322.540283,52.173462 322.775208,50.378769 
	C323.035675,48.925747 322.969543,47.808048 323.147278,46.372925 
	C323.243103,45.294941 323.285309,44.546299 323.496643,43.459175 
	C324.169098,41.671722 323.917725,40.152271 324.125275,38.353954 
	C324.161743,35.969067 324.154205,33.901798 324.179291,31.391567 
	C324.088257,30.428204 323.970642,29.906237 323.737183,29.138027 
	C322.652954,27.872845 321.640045,26.865473 320.376770,25.602266 
	C317.021362,23.869179 313.556824,23.695436 309.980560,22.554192 
	C309.627197,22.462847 309.611664,22.388931 309.574158,22.393169 
	C309.361694,21.798407 309.316742,21.189789 309.552063,20.134989 
	C309.702576,19.698404 309.920898,20.009615 309.820435,19.848770 
	C310.285339,19.567904 310.775421,19.204704 311.656281,19.222366 
	C313.703278,19.328938 315.463501,19.390867 317.578094,19.589172 
	C321.710114,20.216740 325.495483,20.037178 329.675293,19.758083 
	C331.502716,19.474669 332.935730,19.288498 334.720581,19.200150 
	C335.649658,19.145243 336.191101,19.226370 336.950012,19.673000 
	C337.204132,19.799452 337.053284,20.013023 337.119995,19.901154 
	C338.814148,22.896683 339.917145,26.223244 341.378906,29.778883 
	C342.437439,32.327019 343.346191,34.558712 344.283630,37.145966 
	C345.390930,40.121780 346.148529,42.861877 347.456299,45.771111 
	C347.885101,46.642437 348.140808,47.203861 348.416626,48.075912 
	C353.482330,62.033363 358.986664,75.503235 364.195465,89.087372 
	C364.916656,90.968025 364.866333,94.177574 367.282715,94.243607 
	C369.803864,94.312515 369.211792,90.822937 370.618805,88.878624 
	C371.542084,86.244957 372.384949,83.971214 373.475555,81.414581 
	C374.597046,78.801682 375.486908,76.478287 376.648010,73.901146 
	C377.182709,72.269363 377.625580,70.964989 378.275665,69.381363 
	C381.195892,62.491516 383.685944,55.790485 386.615417,48.874489 
	C387.144043,47.227268 387.595917,45.942081 388.246521,44.376644 
	C389.311005,42.528233 389.645935,40.730755 390.637817,38.859108 
	C390.902100,37.902424 391.095062,37.272911 391.496887,36.382904 
	C391.903595,35.457806 392.164459,34.821526 392.646332,33.910011 
	C392.741730,33.578335 392.706879,33.231651 392.829163,33.107552 
	C393.160400,32.821724 393.369385,32.660004 393.910645,32.280624 
	C396.440948,31.955626 399.358704,29.319719 400.058105,34.096199 
	C396.373260,36.598911 395.220795,40.372990 393.445679,44.105293 
	C393.236267,45.074604 393.067505,45.688354 392.737793,46.577400 
	C392.273987,47.576256 391.842834,48.229465 391.467041,49.197121 
	C391.278992,50.092888 391.075470,50.696068 390.702148,51.569614 
	C389.233124,54.043854 388.858032,56.650745 387.505707,59.170612 
	C387.304321,60.111382 387.084320,60.704903 386.703308,61.571110 
	C385.475952,64.139320 384.884705,66.644066 383.470032,69.137146 
	C383.273926,70.092552 383.090118,70.702362 382.731506,71.578735 
	C381.159485,75.102554 379.996033,78.455849 378.401489,82.015038 
	C377.817902,83.646255 377.350250,84.942108 376.717834,86.542343 
	C375.735138,88.421371 375.370941,90.189217 374.391663,92.052094 
	C373.847076,93.667824 373.384644,94.961632 372.748840,96.553497 
	C371.139832,100.091972 370.008148,103.457954 368.396118,107.008942 
	C367.822662,108.644684 367.369629,109.946686 366.746613,111.550568 
	C365.730621,113.363602 365.446320,115.124527 364.283813,116.842018 
	C364.093231,117.104355 364.005737,116.999283 364.054871,117.047089 
	C363.348999,117.602303 362.544861,117.809418 361.283722,117.276840 
	C360.519440,116.373856 360.126923,115.689583 359.690552,114.706818 
	C359.605194,113.617767 358.991211,113.073509 358.685577,112.091682 
	C358.348572,111.211464 358.092285,110.601440 357.786743,109.661209 
	C356.355225,106.080048 354.968750,102.830757 353.681549,99.161018 
	C353.295746,98.232307 353.036957,97.633698 352.726440,96.710762 
	C352.575226,95.680138 352.111755,95.126968 351.758820,94.151321 
	C351.357391,93.233643 351.069580,92.644127 350.716187,91.731750 
	C350.605499,90.622345 349.993683,90.076134 349.705688,89.089287 
	C348.337097,85.589394 347.044678,82.360519 345.695099,78.774063 
	C345.609406,77.619690 344.990051,77.076225 344.674500,76.096519 
	C343.660980,73.574753 342.731812,71.322784 341.753845,68.715118 
	C339.751831,63.410648 337.595703,58.541901 335.735046,53.166679 
	C335.329987,52.237286 335.040802,51.652180 334.690979,50.744408 
	C334.612091,49.624249 333.989990,49.078735 333.691467,48.093765 
	C332.977814,46.292423 332.344604,44.761925 331.687439,42.877823 
	C331.568756,41.426617 330.818268,40.559277 329.928833,40.501442 
	C328.857758,40.431797 328.566559,41.699966 328.286682,42.549057 
	C327.671875,44.414333 328.157471,46.386700 327.874756,48.631546 
	C327.789246,50.669514 327.750427,52.375389 327.576599,54.486351 
	C326.617096,56.978168 327.207886,59.184078 326.844666,61.633934 
	C326.739319,63.657639 326.689972,65.361778 326.527100,67.477097 
	C325.579010,70.300400 326.272400,72.827995 325.770630,75.599289 
	C325.694122,76.679230 325.702576,77.431572 325.573669,78.537582 
	C324.501434,81.957153 325.322693,85.131042 324.773987,88.576660 
	C324.628021,90.372772 324.570374,91.818359 324.377075,93.601883 
	C323.790649,96.031128 324.124390,98.161446 323.880554,100.614868 
	C323.884827,101.425842 323.935333,101.887291 323.920013,102.692589 
	C323.904114,104.697746 324.400024,106.201706 325.644379,107.790695 
	C327.991913,109.838615 330.520905,110.686676 333.549713,111.337799 
	C335.077209,112.166496 336.510071,111.818459 338.016510,112.533905 
	C338.334229,112.619080 338.159760,112.882530 338.266174,112.765762 
	C338.586395,113.234642 338.667847,113.838142 338.490173,114.902748 
	C338.363251,115.345993 338.151886,115.083496 338.239685,115.227310 
	C337.185913,115.844543 336.011719,116.091003 334.415161,115.808914 
	C332.346863,115.715714 330.635468,115.695511 328.518372,115.538483 
	C322.302643,114.642723 316.479034,114.982811 310.275391,115.298759 
	C308.832703,115.551933 307.771698,115.692818 306.314148,115.756668 
	C304.414062,116.048126 302.916809,116.160721 301.093994,115.405411 
	C300.751465,115.239777 301.012054,115.033218 300.885010,115.141663 
	C300.500488,114.712265 300.419312,114.149017 300.707428,113.170471 
	C300.900360,112.780571 301.027954,112.495613 301.180878,112.464218 
	C302.464996,112.641968 303.402863,111.856087 304.798126,111.719101 
	C305.535034,111.479942 305.960297,111.342064 306.723633,111.231934 
	C309.324615,110.687813 311.518219,109.944839 313.778656,108.459091 
	C314.882874,106.721107 315.698486,105.178696 316.658783,103.343399 
	C316.988708,102.049355 317.043793,101.016457 317.479614,99.707520 
	C317.545593,97.802109 317.657928,96.276871 317.873230,94.378792 
	C317.994812,93.565887 318.027100,93.126831 318.123993,92.362473 
	C318.232422,90.975243 318.289917,89.914322 318.507233,88.486671 
	C319.240234,86.356148 318.853760,84.511734 319.190674,82.389542 
	C319.276855,81.305511 319.292908,80.554138 319.470703,79.459839 
	C320.347473,77.167358 319.593842,75.001801 320.466736,72.703018 
	C320.429840,71.439598 320.446075,70.556473 320.601074,69.368706 
	C321.175201,67.461967 320.754791,65.727058 321.483551,63.758224 
z"/>
<path fill="#F7F7F7" opacity="1.000000" stroke="none" 
	d="
M37.791565,149.397522 
	C35.737129,151.678329 33.493076,152.147797 30.769907,152.058182 
	C23.160704,151.807800 15.539622,151.918427 7.457501,151.829285 
	C6.801507,151.676956 6.611240,151.581924 6.214930,151.243362 
	C0.733495,126.275261 11.358429,102.171150 32.765545,90.280807 
	C33.909733,89.645279 34.880325,88.647873 35.933308,90.598030 
	C39.689270,97.554222 45.795677,102.637573 50.799568,109.045273 
	C51.453693,109.637154 51.951611,109.850258 52.781342,109.550377 
	C58.842888,104.767143 65.360390,101.050850 70.875351,95.972023 
	C74.461685,92.669281 78.553009,93.686562 82.853241,95.430328 
	C84.806740,98.060669 87.923798,97.964561 90.342804,99.676086 
	C84.581093,120.731468 70.102013,136.909378 48.004837,137.349274 
	C39.381378,137.520935 39.194851,137.823944 38.248528,146.523468 
	C38.158939,147.347076 38.020054,148.165344 37.791565,149.397522 
z"/>
<path fill="#FAFAFA" opacity="1.000000" stroke="none" 
	d="
M261.051208,55.579678 
	C262.056519,56.032120 262.732422,56.426449 263.651337,56.988220 
	C265.075409,58.040497 266.389221,58.715370 267.898743,59.670670 
	C268.172424,59.827808 268.530975,59.997890 268.691071,60.115143 
	C271.717957,62.035484 274.586884,63.835033 277.779083,65.746353 
	C279.791382,67.270111 281.548859,68.569954 283.559387,70.083603 
	C284.435028,70.615768 284.974304,71.042465 285.660919,71.827057 
	C285.874023,72.099464 285.985870,72.260811 285.908386,72.321075 
	C299.755371,85.391373 291.034760,112.244606 273.480499,116.108109 
	C272.512573,116.321129 271.673401,116.967110 270.281464,117.172081 
	C269.148102,117.438377 268.393097,117.617973 267.259460,117.692398 
	C264.304443,118.163544 261.733826,118.276237 258.739990,117.494377 
	C257.736969,117.521530 257.168274,117.546150 256.341766,117.438599 
	C249.624008,115.771912 243.190094,114.101280 236.172607,113.366409 
	C235.806747,113.163414 235.961136,113.037476 235.898804,113.115189 
	C233.963684,109.167885 235.764725,104.799843 234.479050,100.325226 
	C234.191376,99.199165 234.094864,98.450043 234.078445,97.328743 
	C234.242630,94.935501 232.931534,91.874023 235.282990,91.263428 
	C237.842682,90.598763 237.922302,93.982300 238.728989,95.740608 
	C240.090561,98.708351 241.060715,101.858047 243.371094,104.758591 
	C243.565231,105.080513 243.979843,105.328430 244.042114,105.561813 
	C251.604843,114.412949 263.390106,116.742844 273.732544,111.355865 
	C274.026154,111.117233 274.205048,110.790802 274.391022,110.783585 
	C284.287689,103.492622 283.426483,87.964790 272.810120,80.023003 
	C271.086792,78.733833 269.269073,77.535019 267.033569,76.326950 
	C266.702179,76.156471 266.281830,76.113129 266.166870,75.935852 
	C260.745056,71.792938 254.787933,68.848282 249.360016,65.039803 
	C245.781815,62.529194 242.606903,59.734737 239.539459,56.220306 
	C237.888809,54.634586 237.367737,52.816376 236.600891,50.765198 
	C236.395660,49.492847 235.969284,48.627232 235.854324,47.326492 
	C235.098587,44.957027 235.507126,42.911995 235.763519,40.445515 
	C235.973251,39.368469 236.166656,38.746899 236.427490,37.836929 
	C236.619339,36.603260 236.854141,35.693802 237.279160,34.486332 
	C237.698868,33.455780 238.139801,32.840076 238.626556,31.937672 
	C239.066116,30.956999 239.439880,30.251995 240.025269,29.333076 
	C241.753006,27.034698 243.684296,25.347481 245.804749,23.361958 
	C246.075165,23.141397 246.317825,22.851137 246.493164,22.780148 
	C256.154480,17.035328 266.188965,16.279835 276.841583,18.731466 
	C286.446533,20.941975 286.508148,20.669607 287.082886,30.386671 
	C287.102386,30.715975 287.208710,31.038485 287.468414,31.753525 
	C287.709839,32.562065 287.780762,32.977440 287.836060,33.709320 
	C288.189575,35.801357 287.746918,37.644112 288.409729,39.713650 
	C288.548370,40.225452 288.543304,40.430828 288.351074,40.881001 
	C284.533966,42.132668 284.668365,39.110054 284.058960,37.130207 
	C281.703247,29.476973 277.986664,23.197500 268.890076,21.631741 
	C266.243896,21.627544 263.977081,21.647924 261.330536,21.670671 
	C247.540482,25.296572 243.377411,38.341507 252.598633,48.812881 
	C253.079742,49.310806 253.342133,49.525692 253.764145,49.939247 
	C255.985504,52.190414 258.414703,53.778893 261.051208,55.579678 
z"/>
<path fill="#FAFAFA" opacity="1.000000" stroke="none" 
	d="
M861.254150,25.713818 
	C860.714111,26.153103 860.473694,26.366394 860.066223,26.754269 
	C858.261658,28.797771 857.972656,31.020411 857.976440,33.424026 
	C858.012451,56.165329 858.003418,78.906731 857.987427,101.648079 
	C857.985962,103.672195 858.083740,105.631996 859.571045,107.738983 
	C859.829712,108.127068 859.915222,108.082870 859.893127,108.125626 
	C862.475891,110.244362 865.461792,111.492401 868.727661,111.966927 
	C870.453613,112.217705 871.930359,112.585686 872.429199,114.866356 
	C872.386414,115.250237 872.324280,115.305542 872.296509,115.336464 
	C868.632507,116.806908 865.075684,115.084549 861.513794,115.124176 
	C852.743958,115.221741 843.917725,113.990089 835.197205,115.905418 
	C834.229797,116.117897 833.205383,116.013702 832.211365,115.929916 
	C830.994629,115.827354 829.756165,115.509254 829.706482,114.054260 
	C829.656006,112.578377 830.889282,112.213394 832.097534,112.057388 
	C833.923950,111.821548 835.715210,111.340347 837.390564,110.670349 
	C840.594177,109.389183 843.300659,107.522232 843.382141,103.070877 
	C843.506470,79.517921 843.497253,56.393509 843.473877,32.826336 
	C843.015930,30.660788 843.034790,28.766462 841.441406,27.114414 
	C841.268799,26.822916 841.192688,26.800791 841.192993,26.761139 
	C837.947937,23.441895 833.370178,23.962551 829.112427,22.444599 
	C828.773865,22.284554 828.793396,22.207458 828.754578,22.216078 
	C828.470703,21.702000 828.378296,21.153578 828.585938,20.182407 
	C828.733337,19.785383 828.817444,19.831161 828.805115,19.784904 
	C831.610779,18.527687 834.533508,19.030657 837.909058,19.329922 
	C839.033997,19.456545 839.686462,19.463865 840.661133,19.523060 
	C847.460022,20.370062 853.947632,20.054800 860.837280,19.630882 
	C861.640503,19.457003 862.041443,19.417366 862.744385,19.400696 
	C866.318665,19.591215 870.178284,16.904585 872.463623,21.822605 
	C872.363831,22.262901 872.302917,22.297401 872.282410,22.325764 
	C868.724060,23.512056 864.942322,23.834023 861.254150,25.713818 
z"/>
<path fill="#FEFEFE" opacity="1.000000" stroke="none" 
	d="
M398.739868,34.281181 
	C399.862152,33.123013 400.066284,32.352592 398.444855,32.405590 
	C397.220673,32.445606 396.006592,32.795681 394.418427,33.006271 
	C393.068878,29.629292 395.745483,27.263962 396.581238,23.987164 
	C397.169556,20.480518 398.607117,18.562834 402.507050,19.344059 
	C408.690582,20.495510 414.537170,20.006939 420.754944,19.618336 
	C421.866302,19.385370 422.602325,19.290768 423.704590,19.272621 
	C425.363373,19.246855 426.408752,19.563200 426.354340,21.104815 
	C426.312561,22.287403 425.367188,22.760256 424.358856,22.876989 
	C421.264587,23.235212 418.277771,23.892658 415.364044,25.891743 
	C411.655212,30.723135 412.954132,35.973846 412.807922,41.466377 
	C411.691681,43.750675 411.716644,45.624058 412.748840,47.770294 
	C413.193848,50.760288 413.419403,53.508511 413.611938,56.660843 
	C414.218170,58.783356 413.956238,60.561134 413.883636,62.652977 
	C413.946838,65.034332 414.051727,67.086395 414.091980,69.574692 
	C412.148529,72.556862 412.885834,75.025116 414.446350,77.765030 
	C415.270569,80.179192 414.896851,82.353905 414.957306,84.868477 
	C415.042175,87.228401 415.140747,89.225723 415.062805,91.617630 
	C415.060608,94.071510 415.001221,96.132904 414.904572,98.497665 
	C414.838531,98.981720 414.809479,99.162399 414.974121,99.544373 
	C415.270477,99.905083 415.373230,100.064507 415.601013,100.484512 
	C415.935150,101.319466 415.953339,101.916641 415.907043,102.834229 
	C415.671783,104.722298 413.522705,106.686829 417.059784,107.709557 
	C419.347412,108.835197 421.342896,109.812904 423.649048,110.930511 
	C424.475616,111.527939 425.005280,111.972450 425.500061,112.893173 
	C425.687500,113.684280 425.666840,114.144516 425.370605,114.898132 
	C424.804626,115.455963 424.380646,115.612999 423.583679,115.569672 
	C422.415863,115.139488 421.547485,114.964836 420.304016,115.057983 
	C419.233246,115.217331 418.494843,115.354744 417.379028,115.414093 
	C416.834503,115.234550 416.667328,115.133095 416.275452,114.851212 
	C415.113922,113.766533 414.265961,114.557762 413.053162,114.873138 
	C409.968079,115.028290 407.219666,115.033470 404.106445,114.866913 
	C401.145294,113.505920 402.639526,110.283173 400.649048,108.303749 
	C399.963043,106.744164 400.503479,105.644623 401.109558,104.217026 
	C403.947601,101.819397 402.989807,99.725281 401.190063,97.272881 
	C400.829834,93.528503 401.214294,90.124054 400.744263,86.355736 
	C400.560242,84.786507 400.478210,83.599548 400.485565,81.974609 
	C400.574982,81.536636 400.972321,81.518639 400.774597,81.502625 
	C400.513977,81.320137 400.451050,81.153664 400.422821,80.722504 
	C400.192902,79.498047 399.971161,78.521500 400.029327,77.525787 
	C400.666138,66.621544 398.710083,55.805031 398.882568,44.449154 
	C398.696655,42.204998 398.565918,40.427212 398.483826,38.271069 
	C397.860626,36.782787 397.876495,35.669727 398.739868,34.281181 
z"/>
<path fill="#A4A4A4" opacity="1.000000" stroke="none" 
	d="
M725.877808,41.971245 
	C723.408997,41.566517 723.436584,39.426132 722.787476,37.851013 
	C719.784790,30.564837 714.458923,26.290087 706.657654,25.431974 
	C702.370300,24.960379 698.023071,25.020884 693.701843,24.871344 
	C689.746948,24.734478 687.888428,26.719189 687.901367,30.629339 
	C687.919067,35.958012 687.882080,41.286846 687.881897,46.615612 
	C687.881287,63.934643 687.835632,81.253891 687.910461,98.572609 
	C687.949768,107.668175 689.535706,109.381630 698.553040,111.167557 
	C700.530823,111.559258 703.570435,111.298012 703.110352,114.450966 
	C702.714783,117.161217 699.962830,116.449387 698.108887,116.327766 
	C686.127014,115.541710 674.155518,115.569489 662.176086,116.355194 
	C660.426331,116.469955 658.073669,116.866959 657.777954,114.316071 
	C657.487793,111.812943 659.796997,111.672272 661.556030,111.264519 
	C671.796814,108.890549 672.703247,107.831055 672.715210,97.611099 
	C672.740601,75.962334 672.739624,54.313503 672.717468,32.664730 
	C672.710266,25.604618 672.019897,24.867731 665.070068,24.842400 
	C651.921692,24.794476 640.698364,28.349417 634.690491,41.437164 
	C633.997620,42.946548 632.736694,43.889824 631.067688,43.275520 
	C629.168396,42.576469 629.571533,41.012856 630.054260,39.488354 
	C632.013062,33.302460 634.025513,27.130943 635.823364,20.897942 
	C636.580750,18.272167 638.001404,17.649622 640.596069,17.859064 
	C667.532654,20.033367 694.480042,20.011955 721.416626,17.861557 
	C723.838684,17.668196 725.225281,18.112776 725.660156,20.692036 
	C726.739197,27.093037 727.955017,33.470867 729.064636,39.866905 
	C729.488953,42.312603 728.914856,43.917095 725.871521,42.715851 
	C726.036682,35.721813 723.938782,29.410786 721.815125,23.255598 
	C720.845581,20.445457 717.086670,21.518612 714.548096,21.640333 
	C702.259766,22.229536 689.935364,22.718502 677.672913,22.344282 
	C667.222107,22.025351 656.754578,22.796021 646.311462,21.695976 
	C639.707764,21.000362 638.572876,22.322927 636.710449,31.461617 
	C638.437317,30.460773 639.627258,29.395931 640.849365,28.440395 
	C649.683167,21.533440 659.975281,21.450663 670.393311,22.205086 
	C673.155945,22.405142 674.708374,24.498993 675.620605,27.000296 
	C676.493225,29.393221 676.532837,31.897240 676.534912,34.398075 
	C676.552185,55.212585 676.551636,76.027107 676.537415,96.841629 
	C676.535706,99.346764 676.310364,101.818527 675.750305,104.273438 
	C674.579407,109.406258 671.554443,112.434624 666.250732,112.966232 
	C675.742859,112.172493 685.262207,112.273117 692.749512,112.711510 
	C687.307922,111.308044 684.585510,108.154488 684.527649,100.314911 
	C684.359314,77.503181 684.365173,54.689606 684.525818,31.877808 
	C684.578552,24.391294 687.162354,21.972412 694.510559,22.028004 
	C701.450989,22.080509 708.447144,21.272167 715.043579,24.755247 
	C721.993713,28.425076 725.800110,33.860260 725.877808,41.971245 
z"/>
<path fill="#BDBDBD" opacity="1.000000" stroke="none" 
	d="
M945.623779,20.054335 
	C944.863770,21.481493 943.455811,20.985714 942.177002,20.984312 
	C925.012512,20.965508 907.848083,20.915762 890.683594,20.887609 
	C890.099304,20.886652 889.514771,21.031290 888.654114,21.144348 
	C889.960876,22.636412 891.489563,22.672737 892.895386,22.957466 
	C900.686951,24.535477 902.973328,27.217361 902.987854,35.235569 
	C903.026611,56.568100 903.012390,77.900749 902.993713,99.233337 
	C902.985962,108.090752 901.872437,109.543831 893.236511,112.347466 
	C892.468567,112.596771 891.714661,112.889229 889.607666,113.644081 
	C891.840149,113.932671 892.816040,114.168587 893.791931,114.168648 
	C910.457520,114.169716 927.125549,114.314117 943.787964,114.072334 
	C961.184753,113.819901 974.919189,106.517258 984.091675,91.532806 
	C989.111694,83.332085 989.989502,74.015884 990.519775,64.340584 
	C994.420593,81.274719 983.158447,102.375648 966.568848,110.222359 
	C955.042114,115.674446 942.886353,116.627197 930.503113,116.201126 
	C917.685059,115.760086 904.880615,115.826454 892.069763,116.255287 
	C890.744934,116.299637 889.403992,116.275505 888.090637,116.116600 
	C886.992676,115.983749 886.330322,115.224121 886.278992,114.080864 
	C886.237549,113.155350 886.745239,112.495995 887.546204,112.118546 
	C888.141663,111.837936 888.781799,111.583885 889.427307,111.487816 
	C903.167358,109.443237 901.374939,105.269623 901.437439,95.662018 
	C901.565125,76.023811 901.514038,56.383877 901.431152,36.745102 
	C901.392029,27.477047 899.950195,25.889170 890.907471,24.172455 
	C890.253845,24.048374 889.584656,23.988569 888.943665,23.819511 
	C887.421936,23.418175 885.926086,22.815908 886.292847,20.867672 
	C886.598999,19.240686 888.055359,19.039679 889.434814,19.073048 
	C892.595337,19.149504 895.758362,19.219433 898.913513,19.407492 
	C914.370361,20.328760 929.852783,18.115702 945.623779,20.054335 
z"/>
<path fill="#BDBDBD" opacity="1.000000" stroke="none" 
	d="
M749.299194,101.054741 
	C751.102661,105.249001 749.613525,108.594139 745.670288,110.516022 
	C742.782776,111.923347 739.544556,112.611237 735.941467,113.790329 
	C738.923645,115.962517 741.449463,114.086700 743.893494,114.137054 
	C755.521118,114.376595 767.141541,113.703514 778.787231,114.721542 
	C787.810120,115.510300 796.670288,114.093849 804.948669,109.141022 
	C801.346741,113.811455 795.811218,115.046417 790.234985,115.784691 
	C786.138733,116.327026 781.927063,116.399849 777.793335,116.181129 
	C765.490356,115.530167 753.200439,115.295029 740.901062,116.165962 
	C739.246338,116.283142 737.576477,116.255173 735.916382,116.203506 
	C734.865662,116.170799 733.926392,115.764000 733.701904,114.589066 
	C733.441101,113.224220 734.109680,112.321762 735.392273,111.963989 
	C736.670044,111.607590 737.983521,111.375542 739.286316,111.113441 
	C746.456787,109.670837 747.866394,108.239128 749.299194,101.054741 
z"/>
<path fill="#939393" opacity="1.000000" stroke="none" 
	d="
M859.804932,107.701202 
	C856.911743,107.184479 857.072327,104.561996 857.064331,102.385368 
	C856.979553,79.222023 857.002502,56.058228 857.031250,32.894600 
	C857.033936,30.720066 857.252747,28.536530 859.514038,26.956276 
	C858.744507,30.076126 858.464783,33.356594 858.465576,36.681019 
	C858.470459,57.447899 858.458923,78.214798 858.486511,98.981644 
	C858.490234,101.798538 858.479614,104.647110 859.804932,107.701202 
z"/>
<path fill="#BDBDBD" opacity="1.000000" stroke="none" 
	d="
M747.384521,27.282654 
	C749.793579,27.260271 749.991943,29.199413 750.096741,31.007292 
	C751.402100,53.517494 751.056824,76.035027 749.974121,98.811386 
	C748.460571,97.410248 749.052185,95.523514 749.047363,93.754524 
	C748.997070,75.307388 749.032776,56.860031 749.000122,38.412815 
	C748.993713,34.770878 749.156189,31.074938 747.384521,27.282654 
z"/>
<path fill="#939393" opacity="1.000000" stroke="none" 
	d="
M843.217102,102.811356 
	C844.579712,107.396240 841.854919,109.753136 837.930481,111.153809 
	C835.371582,112.067070 832.695312,112.651115 830.142151,114.183311 
	C843.955322,114.136429 857.679321,113.987801 871.817627,115.235703 
	C871.052551,117.553085 868.965515,116.582024 867.353943,116.460045 
	C856.201721,115.615829 845.065369,115.481636 833.923340,116.556793 
	C832.933472,116.652313 831.926331,116.569565 830.927246,116.569283 
	C829.297668,116.568832 827.812866,116.165955 827.609436,114.296272 
	C827.405212,112.418854 828.792419,111.698654 830.373108,111.373940 
	C831.512939,111.139786 832.681458,111.048233 833.826477,110.835808 
	C838.382263,109.990616 842.008850,108.053223 843.217102,102.811356 
z"/>
<path fill="#D5D5D5" opacity="1.000000" stroke="none" 
	d="
M270.261322,117.378555 
	C271.005249,115.237465 273.206055,115.268204 274.998566,114.575043 
	C284.540283,110.885284 289.397583,103.783226 291.167755,93.841507 
	C292.579681,85.911705 290.301453,79.302063 285.819702,72.732361 
	C293.964386,78.681786 295.987579,90.956192 290.660248,102.148354 
	C286.608459,110.660805 279.916260,115.797745 270.261322,117.378555 
z"/>
<path fill="#A8A8A8" opacity="1.000000" stroke="none" 
	d="
M287.791901,31.712994 
	C285.035461,30.001366 286.418915,26.894199 285.836700,24.271008 
	C285.201660,21.410101 284.050659,20.046116 280.920990,19.868895 
	C275.625763,19.569052 270.366058,18.335526 265.080170,18.257805 
	C258.884552,18.166708 252.901886,19.738333 247.046448,22.773968 
	C252.608490,16.845259 260.183380,16.340958 267.799133,16.706007 
	C273.227112,16.966188 278.611206,18.094725 284.022583,18.774366 
	C285.939026,19.015064 287.026459,19.874748 287.162903,21.893845 
	C287.374451,25.025644 287.679504,28.151131 287.791901,31.712994 
z"/>
<path fill="#BFBFBF" opacity="1.000000" stroke="none" 
	d="
M370.404114,88.713333 
	C370.718597,91.415062 370.356781,95.172638 367.606232,95.651970 
	C364.309357,96.226509 364.418365,91.943565 363.547455,89.726295 
	C358.263702,76.274872 353.275604,62.707333 348.312744,48.782562 
	C353.445496,58.285755 356.643616,68.917023 360.857147,79.138252 
	C362.923340,84.150490 364.837372,89.225449 366.910706,94.502060 
	C369.035248,92.723480 369.026489,90.525421 370.404114,88.713333 
z"/>
<path fill="#D5D5D5" opacity="1.000000" stroke="none" 
	d="
M266.821747,76.474731 
	C282.100098,80.645119 285.592987,95.924232 279.179535,108.016602 
	C278.434479,109.421440 277.170929,110.699821 274.951385,110.849045 
	C284.423737,98.619064 283.003448,88.378044 270.186005,79.121681 
	C269.106750,78.342270 268.022980,77.569069 266.821747,76.474731 
z"/>
<path fill="#A8A8A8" opacity="1.000000" stroke="none" 
	d="
M159.630676,147.619934 
	C168.014191,148.602707 176.061447,149.327789 184.532471,150.016296 
	C184.992920,150.421814 185.029617,150.863892 185.106705,151.636719 
	C181.687195,151.965668 178.227295,151.963867 174.296753,151.931152 
	C167.527069,150.871780 161.112778,151.449783 154.454865,150.275452 
	C154.104218,150.014954 153.675903,149.963943 153.460419,149.955383 
	C153.107315,149.202408 152.969696,148.457977 152.932068,147.347641 
	C155.229797,145.293243 157.281906,146.001740 159.630676,147.619934 
z"/>
<path fill="#A8A8A8" opacity="1.000000" stroke="none" 
	d="
M398.571960,44.304066 
	C401.194824,49.481117 399.733917,55.379799 400.519989,61.074303 
	C401.356110,67.130943 400.821259,73.376839 400.671265,79.998955 
	C398.509430,73.567276 399.430969,66.447372 398.824310,59.447815 
	C398.398010,54.529270 398.468109,49.567703 398.571960,44.304066 
z"/>
<path fill="#A8A8A8" opacity="1.000000" stroke="none" 
	d="
M252.814148,48.740967 
	C247.327942,46.296734 246.874344,41.110519 247.092270,35.981834 
	C247.356934,29.752958 250.305710,24.900969 256.208954,22.280363 
	C257.533539,21.692343 259.053253,21.543919 260.716980,21.433077 
	C256.565460,23.893229 251.835480,25.615774 249.828156,30.818651 
	C247.321289,37.316223 248.271698,43.132038 252.814148,48.740967 
z"/>
<path fill="#D5D5D5" opacity="1.000000" stroke="none" 
	d="
M273.628967,111.132874 
	C273.744171,111.680450 273.610870,112.450500 273.158051,112.776093 
	C265.409119,118.347633 249.189331,114.835541 244.075500,106.156044 
	C252.673798,113.780746 262.352661,115.729736 273.628967,111.132874 
z"/>
<path fill="#D5D5D5" opacity="1.000000" stroke="none" 
	d="
M239.327850,56.264385 
	C247.536636,63.284069 257.233643,68.544304 266.034790,75.417770 
	C256.291229,70.554924 246.403870,65.528008 239.327850,56.264385 
z"/>
<path fill="#BDBDBD" opacity="1.000000" stroke="none" 
	d="
M978.906250,35.704288 
	C972.881836,33.012119 968.460571,27.414722 961.855957,25.281656 
	C957.610413,23.910484 953.362610,22.545980 948.982300,20.866423 
	C960.892517,21.374964 970.713440,26.704208 978.906250,35.704288 
z"/>
<path fill="#BDBDBD" opacity="1.000000" stroke="none" 
	d="
M806.252441,108.769882 
	C806.267151,108.041672 806.464417,107.179535 806.986206,106.620102 
	C815.007385,98.021408 815.880127,88.218727 812.063599,77.178604 
	C817.159546,82.807266 817.275024,93.394699 812.356995,101.998505 
	C810.866699,104.605576 809.091370,107.013107 806.252441,108.769882 
z"/>
<path fill="#A8A8A8" opacity="1.000000" stroke="none" 
	d="
M268.730286,21.871904 
	C274.397339,20.805775 278.196198,23.990040 280.981049,28.548899 
	C282.597321,31.194834 283.670105,34.189228 284.833344,37.088650 
	C285.435120,38.588593 285.413330,40.414619 287.795532,41.026241 
	C285.289124,42.605354 284.827850,42.517601 283.896759,39.196098 
	C283.004913,36.014515 281.945923,32.936356 280.291748,30.079163 
	C277.745178,25.680647 273.773743,23.294580 268.730286,21.871904 
z"/>
<path fill="#A8A8A8" opacity="1.000000" stroke="none" 
	d="
M402.246521,103.626633 
	C401.592499,105.077362 401.212860,106.154518 400.746124,107.565552 
	C399.504089,111.761963 397.008026,113.141197 393.082001,111.584793 
	C399.719513,108.920540 401.026337,103.784904 400.489746,97.501976 
	C400.182220,93.901039 400.260742,90.267128 400.403870,86.310760 
	C402.969635,89.446541 401.292450,93.418663 402.091522,97.545433 
	C403.252319,99.683640 403.527344,101.423759 402.246521,103.626633 
z"/>
<path fill="#FCFCFC" opacity="1.000000" stroke="none" 
	d="
M392.720215,111.225708 
	C396.151611,112.038979 398.176483,110.227180 400.399139,108.082336 
	C404.990601,108.175163 403.238800,111.082031 403.002594,113.703918 
	C401.810455,115.402458 400.122925,114.768806 398.338470,115.287994 
	C396.951874,115.511559 395.928131,115.622467 394.518616,115.700394 
	C393.038177,115.540291 391.955261,115.361488 390.626282,114.787857 
	C390.156372,114.485420 389.987915,114.334114 389.706726,113.860687 
	C389.608429,112.792969 389.975281,112.252831 390.892578,111.716141 
	C391.607391,111.470192 392.007782,111.358360 392.720215,111.225708 
z"/>
<path fill="#D5D5D5" opacity="1.000000" stroke="none" 
	d="
M243.576294,104.731941 
	C239.945114,103.664833 239.770676,99.903496 238.269257,97.092857 
	C237.357224,95.385521 237.057098,93.350922 235.340302,91.544731 
	C235.091171,93.410896 234.886520,94.943954 234.420197,96.716782 
	C234.019653,96.662025 233.745880,96.359291 233.763199,96.074242 
	C233.902725,93.777405 231.917603,90.353607 234.939636,89.504662 
	C238.317551,88.555748 237.940399,92.581421 238.954742,94.568901 
	C240.598450,97.789604 242.052948,101.106880 243.576294,104.731941 
z"/>
<path fill="#BFBFBF" opacity="1.000000" stroke="none" 
	d="
M769.694641,19.382395 
	C769.294495,21.372814 767.634277,20.894993 766.250000,20.873486 
	C759.570679,20.769718 752.858215,21.741993 746.034485,19.977085 
	C753.653564,19.490623 761.455505,19.334852 769.694641,19.382395 
z"/>
<path fill="#D5D5D5" opacity="1.000000" stroke="none" 
	d="
M235.932709,113.514343 
	C242.767303,112.388306 249.237961,114.387245 255.871307,116.987823 
	C249.235245,117.169731 242.770432,114.799049 235.932709,113.514343 
z"/>
<path fill="#939393" opacity="1.000000" stroke="none" 
	d="
M860.800110,19.277340 
	C854.739807,21.893354 848.105164,20.704607 841.240479,19.907055 
	C847.418762,18.514774 853.909729,19.538219 860.800110,19.277340 
z"/>
<path fill="#BFBFBF" opacity="1.000000" stroke="none" 
	d="
M806.706665,50.350506 
	C808.596680,43.665985 808.606445,36.972660 805.111084,30.126736 
	C810.244568,35.347992 810.907349,42.608078 806.706665,50.350506 
z"/>
<path fill="#A8A8A8" opacity="1.000000" stroke="none" 
	d="
M398.319336,115.628120 
	C398.969025,113.565338 400.764160,114.490913 402.597809,114.125618 
	C406.359924,114.105156 409.722839,114.133430 413.542542,114.121147 
	C414.662476,113.397797 415.445435,113.277176 416.633362,113.869629 
	C416.997864,114.348465 417.048950,114.543640 417.050842,115.037415 
	C410.888824,115.509209 404.775970,115.682396 398.319336,115.628120 
z"/>
<path fill="#FAFAFA" opacity="1.000000" stroke="none" 
	d="
M159.936737,147.535324 
	C157.915894,147.597580 155.864853,147.317535 153.422928,147.009613 
	C152.654953,144.918503 152.277863,142.855255 151.976471,140.398254 
	C155.599197,141.385712 158.320572,143.669083 159.936737,147.535324 
z"/>
<path fill="#BFBFBF" opacity="1.000000" stroke="none" 
	d="
M386.398743,48.709000 
	C385.574890,55.835796 381.906860,62.213863 378.805847,69.011932 
	C380.093811,62.018974 383.591125,55.647778 386.398743,48.709000 
z"/>
<path fill="#BFBFBF" opacity="1.000000" stroke="none" 
	d="
M420.684082,19.301582 
	C415.245209,22.334641 409.207947,21.089483 403.026428,19.797367 
	C408.659973,19.340034 414.448914,19.231613 420.684082,19.301582 
z"/>
<path fill="#BFBFBF" opacity="1.000000" stroke="none" 
	d="
M415.516479,26.176115 
	C416.457001,21.805496 420.667694,23.247389 423.580261,22.099760 
	C424.922516,21.570894 427.095642,21.794733 424.246460,19.622257 
	C425.963837,18.156862 427.389130,18.856091 427.804169,20.789890 
	C428.229126,22.770056 426.471832,23.158396 424.963867,23.493855 
	C421.885956,24.178556 418.683838,24.441637 415.516479,26.176115 
z"/>
<path fill="#BFBFBF" opacity="1.000000" stroke="none" 
	d="
M310.341248,115.578537 
	C315.763397,112.890785 321.773499,114.086151 327.937836,115.068817 
	C322.338074,115.516449 316.563416,115.631233 310.341248,115.578537 
z"/>
<path fill="#A8A8A8" opacity="1.000000" stroke="none" 
	d="
M422.706665,114.823586 
	C423.263306,114.581955 423.752625,114.650826 424.609497,114.659561 
	C425.264038,114.450050 425.556763,114.312981 425.942932,114.003967 
	C425.789734,113.711235 425.562408,113.579269 425.169800,113.296646 
	C424.628632,112.679810 424.266388,112.190140 423.931946,111.385437 
	C426.985168,111.343521 431.971680,110.104057 431.572021,114.420967 
	C431.211578,118.314682 426.430481,115.884445 423.291473,115.907928 
	C422.880463,115.482384 422.759918,115.308235 422.706665,114.823586 
z"/>
<path fill="#BDBDBD" opacity="1.000000" stroke="none" 
	d="
M990.745972,61.731083 
	C988.491333,57.414700 987.247925,52.447388 986.131714,47.067276 
	C989.707764,50.945251 990.158142,56.192356 990.745972,61.731083 
z"/>
<path fill="#BFBFBF" opacity="1.000000" stroke="none" 
	d="
M328.021667,48.626225 
	C326.306488,46.630081 327.056335,44.178555 327.590668,41.805817 
	C327.934662,40.278255 327.528839,37.715317 329.444122,37.615265 
	C331.722382,37.496254 331.286530,40.186584 331.759460,42.140041 
	C330.619629,41.912567 329.391113,40.562496 328.917358,42.969582 
	C328.572693,44.720879 328.441620,46.514214 328.021667,48.626225 
z"/>
<path fill="#939393" opacity="1.000000" stroke="none" 
	d="
M872.703491,115.215759 
	C871.658813,113.283943 869.926392,113.006271 868.174500,112.481789 
	C865.285217,111.616783 861.987732,111.570686 859.872559,108.525970 
	C863.296631,109.286896 866.486023,111.048027 870.220459,111.342247 
	C872.142822,111.493690 874.396057,112.231033 872.703491,115.215759 
z"/>
<path fill="#BFBFBF" opacity="1.000000" stroke="none" 
	d="
M801.279602,25.430742 
	C796.292908,24.103027 791.721680,21.097673 786.136536,19.988617 
	C791.780640,19.341589 796.654114,21.768789 801.279602,25.430742 
z"/>
<path fill="#A8A8A8" opacity="1.000000" stroke="none" 
	d="
M335.523376,53.182251 
	C338.740295,57.308605 340.182251,62.509285 341.804077,67.975342 
	C338.567139,63.863205 337.524841,58.479187 335.523376,53.182251 
z"/>
<path fill="#161616" opacity="1.000000" stroke="none" 
	d="
M44.580162,84.834106 
	C40.619137,84.970856 36.986206,84.994942 33.353619,84.969803 
	C32.346764,84.962845 31.181822,84.790405 31.280874,83.467339 
	C31.398191,81.900284 32.555767,82.522659 33.500683,82.649178 
	C37.335312,83.162567 41.245483,83.237549 44.580162,84.834106 
z"/>
<path fill="#D5D5D5" opacity="1.000000" stroke="none" 
	d="
M234.144562,100.392181 
	C237.710510,103.652649 235.288025,108.173996 235.922318,112.724487 
	C233.551865,109.322403 234.558502,104.963104 234.144562,100.392181 
z"/>
<path fill="#939393" opacity="1.000000" stroke="none" 
	d="
M828.836243,22.649029 
	C833.183594,22.566877 837.642639,22.686224 841.161377,26.371058 
	C837.095093,25.485491 832.996826,24.249496 828.836243,22.649029 
z"/>
<path fill="#939393" opacity="1.000000" stroke="none" 
	d="
M872.695679,22.217897 
	C870.492615,17.593124 866.459290,21.062645 863.345215,19.685143 
	C865.716309,17.696898 868.670593,18.498882 871.467529,18.706680 
	C873.352234,18.846710 874.315247,20.198977 872.695679,22.217897 
z"/>
<path fill="#BFBFBF" opacity="1.000000" stroke="none" 
	d="
M329.715271,19.468964 
	C326.336548,22.101074 322.375244,20.906090 318.194458,20.057606 
	C321.741882,19.576059 325.551361,19.426573 329.715271,19.468964 
z"/>
<path fill="#BDBDBD" opacity="1.000000" stroke="none" 
	d="
M734.769836,22.613682 
	C738.722046,21.855101 742.623169,22.354385 746.010132,25.478123 
	C742.356079,24.866638 738.654419,23.896873 734.769836,22.613682 
z"/>
<path fill="#A8A8A8" opacity="1.000000" stroke="none" 
	d="
M398.622803,34.078972 
	C398.998047,35.157528 399.033630,36.306507 398.800842,37.674103 
	C394.835938,38.385448 395.843903,42.279877 393.714172,44.294945 
	C393.746155,40.415821 394.918335,36.763954 398.622803,34.078972 
z"/>
<path fill="#888888" opacity="1.000000" stroke="none" 
	d="
M797.135376,65.287262 
	C796.066101,66.152451 794.990234,65.511513 793.920227,65.146225 
	C792.589600,64.691963 790.364868,64.944160 790.387756,63.081081 
	C790.413147,61.021862 792.647217,61.099934 794.564819,60.821140 
	C793.370789,63.425018 795.538025,64.002266 797.135376,65.287262 
z"/>
<path fill="#939393" opacity="1.000000" stroke="none" 
	d="
M861.357666,25.990976 
	C863.615173,22.358971 867.840637,23.135515 871.851196,22.264431 
	C869.366394,25.314569 865.009033,24.100863 861.357666,25.990976 
z"/>
<path fill="#BFBFBF" opacity="1.000000" stroke="none" 
	d="
M324.928162,88.611076 
	C323.509460,85.674973 323.799988,82.436623 325.106995,79.048012 
	C326.123566,82.047729 325.447998,85.165718 324.928162,88.611076 
z"/>
<path fill="#BFBFBF" opacity="1.000000" stroke="none" 
	d="
M309.798401,22.773014 
	C313.263611,22.226570 316.749634,22.677858 320.008392,25.027073 
	C316.740814,24.592020 313.355225,23.837601 309.798401,22.773014 
z"/>
<path fill="#939393" opacity="1.000000" stroke="none" 
	d="
M277.983093,65.636574 
	C274.470581,65.243233 271.804016,62.914860 268.908783,60.562191 
	C272.453552,60.892105 275.079834,63.299957 277.983093,65.636574 
z"/>
<path fill="#FCFCFC" opacity="1.000000" stroke="none" 
	d="
M417.296448,107.462524 
	C416.059479,108.230377 414.642303,109.783394 413.466614,108.226257 
	C412.329041,106.719559 413.266327,105.196198 414.734222,103.752518 
	C415.418152,102.394035 415.951141,102.920250 416.322510,103.757553 
	C416.521088,105.072960 416.881012,106.070259 417.296448,107.462524 
z"/>
<path fill="#939393" opacity="1.000000" stroke="none" 
	d="
M838.147827,19.170460 
	C835.556519,20.651518 832.610046,19.521002 829.267456,19.818695 
	C831.615234,17.109102 834.853088,18.953260 838.147827,19.170460 
z"/>
<path fill="#A8A8A8" opacity="1.000000" stroke="none" 
	d="
M353.466553,99.192322 
	C356.163635,101.557953 356.683411,105.218422 357.820740,108.948418 
	C355.302277,106.509842 354.667328,102.886032 353.466553,99.192322 
z"/>
<path fill="#A8A8A8" opacity="1.000000" stroke="none" 
	d="
M368.584045,107.184723 
	C368.361816,103.508286 370.268280,100.317772 372.248169,96.944527 
	C372.096954,100.514473 370.322510,103.708298 368.584045,107.184723 
z"/>
<path fill="#BFBFBF" opacity="1.000000" stroke="none" 
	d="
M341.587646,29.731815 
	C338.796051,27.498388 338.254364,23.892279 337.160034,20.171158 
	C339.838104,22.439999 340.175934,26.167887 341.587646,29.731815 
z"/>
<path fill="#A8A8A8" opacity="1.000000" stroke="none" 
	d="
M389.625671,114.389641 
	C391.252197,114.468567 392.585175,114.134384 393.962952,115.314545 
	C391.808105,116.973679 389.395721,116.503746 386.772217,115.741379 
	C386.574310,115.223694 386.586945,114.984985 386.896362,114.543549 
	C387.885162,114.076218 388.588867,114.037544 389.625671,114.389641 
z"/>
<path fill="#BFBFBF" opacity="1.000000" stroke="none" 
	d="
M414.027100,78.176620 
	C410.968964,75.674065 411.487213,72.912613 413.636871,70.043594 
	C415.120209,71.992134 414.612488,74.197075 414.823730,76.675781 
	C414.732727,77.466766 414.583984,77.815765 414.027100,78.176620 
z"/>
<path fill="#A8A8A8" opacity="1.000000" stroke="none" 
	d="
M378.593414,82.191055 
	C378.325714,78.500687 380.285461,75.322983 382.228577,71.934937 
	C382.118958,75.520935 380.322418,78.708977 378.593414,82.191055 
z"/>
<path fill="#A8A8A8" opacity="1.000000" stroke="none" 
	d="
M261.287384,55.315769 
	C257.966156,55.473801 255.894089,53.227638 253.922211,50.483196 
	C256.754456,51.146835 258.789276,53.347363 261.287384,55.315769 
z"/>
<path fill="#BFBFBF" opacity="1.000000" stroke="none" 
	d="
M783.321472,19.228012 
	C781.010681,20.486193 778.351807,20.032673 775.390747,19.593277 
	C777.689453,18.230961 780.376648,18.820604 783.321472,19.228012 
z"/>
<path fill="#FCFCFC" opacity="1.000000" stroke="none" 
	d="
M414.114563,99.989090 
	C414.100586,97.462494 414.247559,94.969330 414.640411,92.244186 
	C415.984619,94.274071 415.414551,96.728523 415.660919,99.531982 
	C415.431122,100.130447 415.243011,100.280869 414.775269,100.202477 
	C414.495667,99.973663 414.275543,100.022522 414.114563,99.989090 
z"/>
<path fill="#A8A8A8" opacity="1.000000" stroke="none" 
	d="
M413.749939,78.619743 
	C413.925842,77.939346 414.112732,77.641663 414.520996,77.202698 
	C415.854797,79.450638 415.310333,81.984512 415.166107,84.847549 
	C412.963135,83.456039 414.257080,81.059303 413.749939,78.619743 
z"/>
<path fill="#A8A8A8" opacity="1.000000" stroke="none" 
	d="
M245.734070,23.113869 
	C245.186691,25.850882 242.755844,27.219799 240.570221,29.105360 
	C240.968201,26.264309 243.209732,24.700232 245.734070,23.113869 
z"/>
<path fill="#D5D5D5" opacity="1.000000" stroke="none" 
	d="
M258.591187,117.739990 
	C260.905701,116.542709 263.576355,116.946457 266.557007,117.336029 
	C264.277283,119.022934 261.565735,118.274826 258.591187,117.739990 
z"/>
<path fill="#BFBFBF" opacity="1.000000" stroke="none" 
	d="
M325.934937,75.622673 
	C324.423309,73.331482 324.790710,70.753998 326.092224,68.035759 
	C327.036316,70.386597 326.468445,72.848145 325.934937,75.622673 
z"/>
<path fill="#E8E8E8" opacity="1.000000" stroke="none" 
	d="
M90.561386,99.329849 
	C87.800903,99.505951 84.859344,99.428238 83.142380,96.068085 
	C85.807747,96.242783 88.107712,97.626877 90.561386,99.329849 
z"/>
<path fill="#BFBFBF" opacity="1.000000" stroke="none" 
	d="
M396.417053,23.793423 
	C397.112885,26.871943 395.051453,29.401440 394.116150,32.642891 
	C393.865723,33.013512 393.682587,33.022240 393.225403,33.007210 
	C393.175781,29.686413 394.849304,26.897026 396.417053,23.793423 
z"/>
<path fill="#A8A8A8" opacity="1.000000" stroke="none" 
	d="
M387.789520,59.303963 
	C387.048431,56.624710 388.349152,54.287743 390.201965,51.930077 
	C390.562195,54.549107 389.005890,56.716187 387.789520,59.303963 
z"/>
<path fill="#BFBFBF" opacity="1.000000" stroke="none" 
	d="
M327.007568,61.632095 
	C325.469971,59.687920 325.764221,57.424973 327.120667,55.027336 
	C328.129547,57.056644 327.414642,59.174843 327.007568,61.632095 
z"/>
<path fill="#BFBFBF" opacity="1.000000" stroke="none" 
	d="
M324.026154,100.660141 
	C322.458618,98.816399 322.976593,96.606956 323.931305,94.166618 
	C325.116547,96.081749 324.170044,98.216995 324.026154,100.660141 
z"/>
<path fill="#BFBFBF" opacity="1.000000" stroke="none" 
	d="
M347.676941,45.716927 
	C344.801483,44.227783 345.079590,40.971081 344.208496,37.891022 
	C346.298492,39.749737 346.619385,42.721703 347.676941,45.716927 
z"/>
<path fill="#BFBFBF" opacity="1.000000" stroke="none" 
	d="
M313.713562,108.284012 
	C312.854218,111.267204 310.005920,111.156776 307.283661,111.484375 
	C309.161072,110.274620 311.260468,109.289558 313.713562,108.284012 
z"/>
<path fill="#BDBDBD" opacity="1.000000" stroke="none" 
	d="
M811.705444,75.768753 
	C809.353333,75.534981 808.146301,73.684441 806.926270,71.521423 
	C809.387268,71.635757 810.272095,73.847321 811.705444,75.768753 
z"/>
<path fill="#A8A8A8" opacity="1.000000" stroke="none" 
	d="
M383.754700,69.309387 
	C383.040710,66.601097 384.676819,64.389786 386.215027,61.941742 
	C386.542786,64.558273 385.051178,66.763123 383.754700,69.309387 
z"/>
<path fill="#BFBFBF" opacity="1.000000" stroke="none" 
	d="
M376.443176,73.752487 
	C376.791321,76.293922 375.778687,78.663734 374.027069,81.010971 
	C373.600830,78.418488 375.246033,76.300163 376.443176,73.752487 
z"/>
<path fill="#A8A8A8" opacity="1.000000" stroke="none" 
	d="
M414.066040,62.711151 
	C412.188202,61.374943 412.975159,59.406635 413.308350,57.305199 
	C414.944855,58.707268 414.201538,60.628696 414.066040,62.711151 
z"/>
<path fill="#BFBFBF" opacity="1.000000" stroke="none" 
	d="
M319.045288,82.372910 
	C320.434326,83.980667 320.173492,85.904137 318.963318,87.973709 
	C317.957977,86.286736 318.791931,84.499763 319.045288,82.372910 
z"/>
<path fill="#A8A8A8" opacity="1.000000" stroke="none" 
	d="
M288.764801,39.733284 
	C286.407227,38.598179 287.284546,36.481014 287.559448,34.294109 
	C288.892853,35.686199 288.917969,37.569866 288.764801,39.733284 
z"/>
<path fill="#BFBFBF" opacity="1.000000" stroke="none" 
	d="
M413.147858,47.601730 
	C409.947571,46.453377 411.192108,44.250526 412.413208,42.011120 
	C413.609833,43.604195 413.239777,45.422836 413.147858,47.601730 
z"/>
<path fill="#BFBFBF" opacity="1.000000" stroke="none" 
	d="
M320.185974,72.627701 
	C321.180786,74.481186 321.328339,76.629150 319.968628,78.937103 
	C318.798126,77.005814 319.770874,74.989929 320.185974,72.627701 
z"/>
<path fill="#939393" opacity="1.000000" stroke="none" 
	d="
M841.224731,27.171844 
	C843.825195,27.543959 843.916138,29.578346 843.660706,32.036884 
	C842.700012,30.762623 841.940308,29.141697 841.224731,27.171844 
z"/>
<path fill="#BFBFBF" opacity="1.000000" stroke="none" 
	d="
M323.976349,38.355209 
	C325.423462,39.623302 325.143372,41.236313 323.958496,42.990204 
	C322.939392,41.618237 323.683960,40.154690 323.976349,38.355209 
z"/>
<path fill="#BFBFBF" opacity="1.000000" stroke="none" 
	d="
M300.849091,115.552658 
	C302.289948,115.211594 303.828400,115.183411 305.642212,115.417419 
	C304.294617,116.651001 302.626587,116.416756 300.849091,115.552658 
z"/>
<path fill="#BFBFBF" opacity="1.000000" stroke="none" 
	d="
M325.815674,107.721382 
	C323.379669,107.423042 323.008911,105.641907 323.610046,103.251717 
	C324.495148,104.483315 325.136078,105.930191 325.815674,107.721382 
z"/>
<path fill="#BFBFBF" opacity="1.000000" stroke="none" 
	d="
M321.224030,63.580463 
	C322.157654,65.077965 322.197968,66.805801 321.077881,68.794708 
	C319.855743,67.271057 320.681213,65.556252 321.224030,63.580463 
z"/>
<path fill="#A8A8A8" opacity="1.000000" stroke="none" 
	d="
M374.614868,92.217590 
	C373.851410,90.304932 374.788330,88.646698 376.217590,86.940689 
	C376.763977,88.821358 375.674011,90.388618 374.614868,92.217590 
z"/>
<path fill="#A8A8A8" opacity="1.000000" stroke="none" 
	d="
M364.432983,117.052032 
	C364.104279,115.193878 364.773682,113.520752 366.251160,111.937042 
	C366.819061,113.863899 365.759155,115.418930 364.432983,117.052032 
z"/>
<path fill="#BFBFBF" opacity="1.000000" stroke="none" 
	d="
M390.417694,38.715965 
	C391.108856,40.600292 390.266602,42.299931 388.779297,44.001808 
	C388.249573,42.119694 389.419586,40.584785 390.417694,38.715965 
z"/>
<path fill="#BFBFBF" opacity="1.000000" stroke="none" 
	d="
M338.174133,112.309883 
	C336.872162,113.109741 335.440765,113.312798 334.024994,111.836708 
	C335.345276,111.045036 336.684723,111.481262 338.174133,112.309883 
z"/>
<path fill="#A8A8A8" opacity="1.000000" stroke="none" 
	d="
M390.878265,111.419250 
	C390.931366,111.949928 390.655701,112.317825 390.166382,112.801178 
	C389.492798,113.519829 388.873840,113.796021 387.777100,113.734917 
	C387.227234,113.540543 387.025482,113.416748 386.733459,112.949570 
	C387.608917,111.182884 389.124817,111.351692 390.878265,111.419250 
z"/>
<path fill="#D5D5D5" opacity="1.000000" stroke="none" 
	d="
M187.102402,137.733459 
	C185.630112,136.882462 185.814529,135.642441 186.869156,134.148834 
	C187.188370,135.129196 187.229324,136.307190 187.102402,137.733459 
z"/>
<path fill="#BFBFBF" opacity="1.000000" stroke="none" 
	d="
M334.274719,115.948509 
	C335.069885,114.583633 336.368958,115.002785 337.967102,115.228943 
	C337.323853,116.970543 335.805450,116.070183 334.274719,115.948509 
z"/>
<path fill="#BDBDBD" opacity="1.000000" stroke="none" 
	d="
M805.063843,69.587524 
	C803.384460,70.111664 802.120911,69.216858 800.940186,67.699997 
	C802.646545,67.156891 803.763794,68.322060 805.063843,69.587524 
z"/>
<path fill="#939393" opacity="1.000000" stroke="none" 
	d="
M268.110260,59.495663 
	C266.365265,60.027790 265.161865,58.961525 263.941284,57.494209 
	C265.671356,57.013092 266.789001,58.234592 268.110260,59.495663 
z"/>
<path fill="#BFBFBF" opacity="1.000000" stroke="none" 
	d="
M323.002991,46.268913 
	C324.398956,47.173847 324.018585,48.397121 323.148926,49.831795 
	C322.858612,48.851341 322.831879,47.672791 323.002991,46.268913 
z"/>
<path fill="#BDBDBD" opacity="1.000000" stroke="none" 
	d="
M984.874756,43.716831 
	C982.878113,43.677025 982.576538,41.988564 982.089600,40.134834 
	C984.002563,40.257664 984.012878,42.156219 984.874756,43.716831 
z"/>
<path fill="#A8A8A8" opacity="1.000000" stroke="none" 
	d="
M414.616882,100.403458 
	C414.683289,99.908684 414.870911,99.843697 415.338898,99.879372 
	C416.747498,100.908592 416.441071,102.218613 416.347778,103.748993 
	C415.874023,103.904289 415.586914,103.732910 415.132172,103.537163 
	C414.889038,102.619606 414.813568,101.726433 414.616882,100.403458 
z"/>
<path fill="#BFBFBF" opacity="1.000000" stroke="none" 
	d="
M797.208862,59.651062 
	C797.077637,57.891655 798.251953,57.314236 800.054688,57.163147 
	C799.990234,58.725002 798.684998,59.137753 797.208862,59.651062 
z"/>
<path fill="#BFBFBF" opacity="1.000000" stroke="none" 
	d="
M801.239502,56.753155 
	C800.898132,55.211578 801.954285,54.492985 803.501587,53.920429 
	C803.779480,55.445934 802.524841,55.971527 801.239502,56.753155 
z"/>
<path fill="#BFBFBF" opacity="1.000000" stroke="none" 
	d="
M804.741577,28.771954 
	C803.173096,29.120138 802.477905,28.064648 801.903992,26.553532 
	C803.445129,26.234926 803.995178,27.485332 804.741577,28.771954 
z"/>
<path fill="#A8A8A8" opacity="1.000000" stroke="none" 
	d="
M360.934387,117.360138 
	C361.712433,117.024178 362.512878,116.990211 363.708679,117.025574 
	C363.364838,119.003433 362.242981,118.788757 360.934387,117.360138 
z"/>
<path fill="#A8A8A8" opacity="1.000000" stroke="none" 
	d="
M235.571655,47.168678 
	C237.000168,47.541489 236.912292,48.623058 236.713318,50.053131 
	C235.320786,49.727272 235.403748,48.516933 235.571655,47.168678 
z"/>
<path fill="#FAFAFA" opacity="1.000000" stroke="none" 
	d="
M422.549500,114.355049 
	C422.758453,114.714256 422.742950,114.915428 422.864197,115.386566 
	C422.145081,115.615479 421.289124,115.574425 420.202454,115.306641 
	C420.494843,114.089165 421.314331,113.888329 422.549500,114.355049 
z"/>
<path fill="#BFBFBF" opacity="1.000000" stroke="none" 
	d="
M322.076477,55.234417 
	C323.312805,55.893524 323.045746,56.794285 322.178650,57.867542 
	C321.313110,57.161045 321.708069,56.279827 322.076477,55.234417 
z"/>
<path fill="#BFBFBF" opacity="1.000000" stroke="none" 
	d="
M738.759949,19.101940 
	C738.116638,20.254248 737.088196,20.010044 735.734009,19.627665 
	C736.299255,18.314993 737.478455,18.818939 738.759949,19.101940 
z"/>
<path fill="#BFBFBF" opacity="1.000000" stroke="none" 
	d="
M304.794556,111.480316 
	C304.492828,113.118958 303.267700,113.009567 301.667664,112.612213 
	C302.175140,111.471664 303.367462,111.523369 304.794556,111.480316 
z"/>
<path fill="#BFBFBF" opacity="1.000000" stroke="none" 
	d="
M317.203552,99.510674 
	C318.028076,100.387169 318.074341,101.446892 317.118103,102.778503 
	C316.214661,101.898918 316.744080,100.804070 317.203552,99.510674 
z"/>
<path fill="#E8E8E8" opacity="1.000000" stroke="none" 
	d="
M52.688442,109.422470 
	C52.645069,110.840034 52.050091,111.302200 51.004929,109.610176 
	C51.429123,109.369408 51.886948,109.390549 52.688442,109.422470 
z"/>
<path fill="#A8A8A8" opacity="1.000000" stroke="none" 
	d="
M236.136307,37.614998 
	C236.895630,38.186649 236.871964,38.889442 236.182846,39.814873 
	C234.856522,39.242558 235.656281,38.482407 236.136307,37.614998 
z"/>
<path fill="#A8A8A8" opacity="1.000000" stroke="none" 
	d="
M351.523987,94.111603 
	C352.546631,94.174614 352.845032,94.910095 352.789001,96.092491 
	C351.714966,96.067383 351.588287,95.214867 351.523987,94.111603 
z"/>
<path fill="#BFBFBF" opacity="1.000000" stroke="none" 
	d="
M392.463867,33.710785 
	C393.112793,34.446156 392.888092,35.187771 391.983704,35.983349 
	C391.359039,35.255890 391.760742,34.547077 392.463867,33.710785 
z"/>
<path fill="#A8A8A8" opacity="1.000000" stroke="none" 
	d="
M238.383591,31.759962 
	C239.160202,32.612972 238.562576,33.276768 237.769958,34.078667 
	C236.999619,33.237045 237.624313,32.570110 238.383591,31.759962 
z"/>
<path fill="#BFBFBF" opacity="1.000000" stroke="none" 
	d="
M323.575562,29.156082 
	C324.721466,29.092676 324.990082,29.723932 324.420471,30.819427 
	C323.969696,30.443045 323.727478,29.937492 323.575562,29.156082 
z"/>
<path fill="#BFBFBF" opacity="1.000000" stroke="none" 
	d="
M338.640503,115.307732 
	C338.287292,114.743172 338.211334,114.140343 338.254028,113.093262 
	C340.017303,113.218163 339.510040,114.234970 338.640503,115.307732 
z"/>
<path fill="#939393" opacity="1.000000" stroke="none" 
	d="
M828.437866,19.761173 
	C828.791443,20.330889 828.849609,20.876394 828.811768,21.823299 
	C826.944336,21.759674 827.275696,20.810013 828.437866,19.761173 
z"/>
<path fill="#BFBFBF" opacity="1.000000" stroke="none" 
	d="
M309.422607,19.719536 
	C309.724548,20.303595 309.746521,20.908783 309.652557,21.955688 
	C307.945007,21.728367 308.482239,20.743649 309.422607,19.719536 
z"/>
<path fill="#BFBFBF" opacity="1.000000" stroke="none" 
	d="
M337.168610,19.555880 
	C336.619110,19.790079 336.034088,19.780708 335.260742,19.534655 
	C335.765533,18.409666 336.449554,18.826521 337.168610,19.555880 
z"/>
<path fill="#BFBFBF" opacity="1.000000" stroke="none" 
	d="
M311.796570,19.079496 
	C311.397461,19.485186 310.851929,19.703360 310.013184,19.804729 
	C309.989166,18.515211 310.885406,18.863094 311.796570,19.079496 
z"/>
<path fill="#BFBFBF" opacity="1.000000" stroke="none" 
	d="
M317.996521,92.173935 
	C318.951538,92.503891 318.896790,93.095139 318.202698,93.876831 
	C317.923492,93.441200 317.870789,92.876457 317.996521,92.173935 
z"/>
<path fill="#A8A8A8" opacity="1.000000" stroke="none" 
	d="
M349.506104,89.107513 
	C350.677277,89.081764 350.864807,89.895439 350.775757,91.107437 
	C349.697723,91.072296 349.596100,90.199303 349.506104,89.107513 
z"/>
<path fill="#A8A8A8" opacity="1.000000" stroke="none" 
	d="
M386.723145,115.296036 
	C385.430939,114.732155 385.427979,113.832947 386.404663,112.714447 
	C386.643127,112.606194 386.940186,112.922958 387.090179,113.079956 
	C387.483063,113.555893 387.569031,113.915794 387.363800,114.553734 
	C387.207092,114.796661 386.884552,115.129677 386.723145,115.296036 
z"/>
<path fill="#A8A8A8" opacity="1.000000" stroke="none" 
	d="
M391.733246,49.311977 
	C390.881104,48.542099 391.229675,47.766628 392.250397,46.953243 
	C392.379211,47.613213 392.181580,48.373734 391.733246,49.311977 
z"/>
<path fill="#A8A8A8" opacity="1.000000" stroke="none" 
	d="
M333.516479,48.115486 
	C334.651733,48.095215 334.874756,48.895370 334.765991,50.121941 
	C334.227570,49.750511 333.824768,49.079281 333.516479,48.115486 
z"/>
<path fill="#BFBFBF" opacity="1.000000" stroke="none" 
	d="
M300.627808,112.788734 
	C300.925690,113.334740 300.951050,113.888908 300.867188,114.846588 
	C299.152100,114.673927 299.639618,113.754135 300.627808,112.788734 
z"/>
<path fill="#A8A8A8" opacity="1.000000" stroke="none" 
	d="
M344.483276,76.119713 
	C345.624908,76.094818 345.863708,76.886635 345.767670,78.114967 
	C344.711304,78.067238 344.596741,77.206673 344.483276,76.119713 
z"/>
<path fill="#A8A8A8" opacity="1.000000" stroke="none" 
	d="
M358.503876,112.113266 
	C359.654083,112.078827 359.891632,112.872864 359.782166,114.107559 
	C359.232056,113.740562 358.817474,113.072800 358.503876,112.113266 
z"/>
<path fill="#939393" opacity="1.000000" stroke="none" 
	d="
M285.885437,71.774574 
	C284.830841,72.346992 284.320892,71.647697 283.814026,70.618820 
	C284.856445,70.049911 285.389404,70.726700 285.885437,71.774574 
z"/>
<path fill="#E9E9E9" opacity="1.000000" stroke="none" 
	d="
M16.531124,24.656616 
	C16.244345,24.633356 15.902634,24.629486 15.560924,24.625618 
	C15.771681,24.701763 15.982438,24.777910 16.364891,24.713783 
	C16.536587,24.573507 16.476196,24.676006 16.531124,24.656616 
z"/>
<path fill="#E8E8E8" opacity="1.000000" stroke="none" 
	d="
M5.897917,151.233887 
	C6.300569,151.059357 6.546795,151.199020 6.869669,151.595398 
	C6.780705,151.807938 6.569638,151.843887 6.041516,151.931061 
	C5.745291,151.810837 5.766119,151.639389 5.897917,151.233887 
z"/>
<path fill="#A8A8A8" opacity="1.000000" stroke="none" 
	d="
M400.592682,81.499451 
	C400.838226,81.427292 401.099518,81.367966 401.360840,81.308640 
	C401.280487,81.497108 401.200134,81.685577 400.847382,81.705345 
	C400.574982,81.536636 400.608459,81.512299 400.592682,81.499451 
z"/>
<path fill="#EBEBEB" opacity="1.000000" stroke="none" 
	d="
M154.097214,150.439484 
	C160.573471,149.516479 166.938065,150.574631 173.575317,151.603821 
	C168.377472,151.942749 162.928558,152.027420 157.480377,151.994537 
	C156.296310,151.987381 154.747925,152.627686 154.097214,150.439484 
z"/>
<path fill="#0B0B0B" opacity="1.000000" stroke="none" 
	d="
M602.386963,38.003311 
	C602.518555,38.916523 602.612061,39.408993 602.658630,39.905861 
	C604.546570,60.089664 594.463867,69.379562 574.345825,66.121826 
	C572.036743,65.747925 571.213562,64.703491 571.233154,62.524776 
	C571.324463,52.366734 571.344666,42.208000 571.453491,32.050194 
	C571.502441,27.483511 574.077942,25.208616 578.430420,24.347641 
	C591.335510,21.794886 599.318054,26.163635 602.386963,38.003311 
z"/>
<path fill="#090909" opacity="1.000000" stroke="none" 
	d="
M116.928436,51.373947 
	C119.382263,37.171661 130.776718,27.409691 143.598389,28.120628 
	C153.758209,28.683969 161.941330,35.799339 164.643158,46.419384 
	C167.592667,58.013031 163.364059,69.925262 154.018692,75.226700 
	C145.613113,79.995018 136.628128,81.717117 127.945145,76.367149 
	C118.973389,70.839264 116.135582,62.005062 116.928436,51.373947 
z"/>
<path fill="#0B0B0B" opacity="1.000000" stroke="none" 
	d="
M171.409882,144.532791 
	C169.916809,144.155640 168.842133,143.964127 167.373199,143.914551 
	C164.987854,143.548645 163.768478,142.163162 162.802155,140.079346 
	C161.425125,136.768021 160.100693,133.807404 158.387207,130.903595 
	C155.212921,132.512360 152.473572,131.488571 149.354095,130.604187 
	C145.388367,129.785263 141.740829,129.399933 138.214691,128.525208 
	C124.918335,125.226814 116.853073,116.470879 112.582169,103.344292 
	C112.398666,102.791428 112.429153,102.562912 112.702576,102.088303 
	C122.267952,106.405891 131.435059,111.304573 141.540237,115.053787 
	C141.959183,116.505638 141.952209,117.805511 143.943451,117.676163 
	C146.744034,117.494247 149.526062,118.222420 152.673615,117.952194 
	C156.168274,117.980682 159.329224,117.983932 162.486557,118.092239 
	C164.694595,118.167969 166.105484,117.358467 164.295532,115.381493 
	C161.363541,112.178970 160.172318,108.047050 157.871124,104.581184 
	C166.043869,104.325584 174.131104,111.661049 176.752609,121.862038 
	C177.284943,123.933395 177.577408,126.066391 178.112976,128.555084 
	C179.284729,131.285721 179.126633,133.833328 179.259613,136.653778 
	C178.835907,137.416473 178.633499,137.820267 178.568237,138.563766 
	C179.078232,144.961243 178.719376,145.264664 171.409882,144.532791 
z"/>
<path fill="#535353" opacity="1.000000" stroke="none" 
	d="
M152.744171,117.665680 
	C149.064148,119.812759 144.872681,118.386879 140.817978,118.822144 
	C139.956314,118.914642 139.130585,118.507210 139.000015,117.522820 
	C138.758438,115.701195 140.366394,116.037781 141.613358,115.403893 
	C145.421036,115.912331 148.950241,116.655563 152.744171,117.665680 
z"/>
<path fill="#E4E4E4" opacity="1.000000" stroke="none" 
	d="
M148.980530,130.787903 
	C151.762741,129.646576 154.492920,130.565552 157.623657,130.807739 
	C158.244492,133.750412 156.508301,134.253967 154.331223,133.964859 
	C152.252319,133.688782 149.071213,135.334396 148.980530,130.787903 
z"/>
<path fill="#E4E4E4" opacity="1.000000" stroke="none" 
	d="
M171.114899,144.706024 
	C171.941040,144.253510 172.939224,143.923615 173.831741,144.107269 
	C177.642578,144.891327 179.016022,143.325058 178.567215,139.278305 
	C180.296921,140.860107 181.835648,144.001297 180.041840,145.266861 
	C177.745636,146.886902 174.155106,146.740646 171.114899,144.706024 
z"/>
<path fill="#E4E4E4" opacity="1.000000" stroke="none" 
	d="
M162.346329,139.813705 
	C164.058289,140.989746 165.367035,142.250870 166.827362,143.784241 
	C165.377045,145.485367 163.768875,145.318008 161.979538,143.730042 
	C161.411224,143.135483 161.024719,142.878967 160.365997,142.404724 
	C160.075211,140.917755 160.709946,140.166565 162.346329,139.813705 
z"/>
<path fill="#BFBFBF" opacity="1.000000" stroke="none" 
	d="
M179.405426,137.003540 
	C178.711029,134.592667 178.383728,132.172653 178.150970,129.345932 
	C180.727615,131.250244 181.270355,133.928925 179.405426,137.003540 
z"/>
<path fill="#0B0B0B" opacity="1.000000" stroke="none" 
	d="
M160.207611,142.373779 
	C160.713242,142.231827 161.338577,142.254761 161.958878,142.323318 
	C162.069855,142.335587 162.235718,142.535965 162.236801,142.650772 
	C162.237717,142.750763 162.041763,142.852585 161.867691,143.169128 
	C161.310272,143.107849 160.817932,142.831039 160.207611,142.373779 
z"/>
<path fill="#E4E4E4" opacity="1.000000" stroke="none" 
	d="
M112.796524,101.645966 
	C112.844681,102.036232 112.743851,102.230263 112.505600,102.722122 
	C111.683121,102.825638 111.075027,102.489166 111.431953,101.683052 
	C111.527161,101.468018 112.225891,101.520218 112.796524,101.645966 
z"/>
<path fill="#161616" opacity="1.000000" stroke="none" 
	d="
M51.195885,34.674927 
	C43.335926,36.085999 35.616074,35.378292 27.493416,36.048698 
	C24.353840,37.929897 21.614552,37.982594 18.520151,36.020386 
	C18.249317,34.769337 18.275566,33.900494 18.270504,32.706810 
	C22.083450,29.518614 26.498192,31.034233 30.548887,31.232246 
	C34.080959,31.404911 37.700195,31.813414 41.660721,32.590012 
	C44.721348,32.936432 47.373711,33.044090 50.464584,33.207993 
	C51.298824,33.548225 51.471516,33.932453 51.195885,34.674927 
z"/>
<path fill="#BDBDBD" opacity="1.000000" stroke="none" 
	d="
M42.385368,32.573524 
	C34.411938,32.582184 26.754889,32.335598 18.668514,32.235489 
	C18.027206,29.738207 19.925249,29.991766 21.577919,29.989920 
	C33.018158,29.977131 44.385914,31.685568 55.854145,31.737654 
	C51.470016,31.931198 47.085884,32.124741 42.385368,32.573524 
z"/>
<path fill="#BFBFBF" opacity="1.000000" stroke="none" 
	d="
M18.173351,36.045860 
	C20.833834,36.570091 23.510778,35.777519 26.590664,36.026554 
	C27.313766,37.462955 29.111052,39.679512 25.543285,38.909164 
	C22.991594,38.358212 19.479849,40.621426 18.173351,36.045860 
z"/>
<path fill="#535353" opacity="1.000000" stroke="none" 
	d="
M51.413712,35.034790 
	C50.947956,34.562702 50.925339,34.192467 50.902912,33.543236 
	C54.170460,32.825645 57.357533,33.239368 60.554474,34.290359 
	C57.741127,35.603512 54.798241,35.363422 51.413712,35.034790 
z"/>
<path fill="#080808" opacity="1.000000" stroke="none" 
	d="
M799.883423,92.473305 
	C796.546997,107.746941 785.351257,114.446983 770.694031,110.484451 
	C766.192993,109.267616 763.831360,106.413712 763.764648,101.933578 
	C763.603638,91.129723 763.699890,80.322273 763.619690,69.516808 
	C763.600525,66.937202 764.699036,65.976479 767.234375,66.067673 
	C771.219849,66.211006 775.216492,66.045502 779.201965,66.189194 
	C793.050903,66.688530 800.502686,74.678848 800.142517,88.552322 
	C800.112305,89.714828 800.010803,90.875488 799.883423,92.473305 
z"/>
<path fill="#090909" opacity="1.000000" stroke="none" 
	d="
M793.766113,45.752670 
	C793.553772,46.564800 793.426392,46.985069 793.334351,47.735245 
	C792.699951,50.644012 792.233093,53.302460 790.211304,55.707977 
	C789.951172,55.962975 790.001770,55.996948 789.981628,55.973736 
	C789.131287,56.890488 788.238708,57.766998 786.991333,58.691021 
	C786.698730,58.801926 786.304749,58.857418 786.180908,59.013130 
	C784.474548,60.328266 782.651917,60.831711 780.401001,61.197433 
	C779.004578,61.330116 777.954651,61.377159 776.523254,61.527275 
	C772.341858,62.178940 768.542419,62.236656 764.320679,61.398121 
	C763.897888,61.175156 763.923645,61.089386 763.879028,61.092484 
	C762.159668,56.619270 763.232483,51.972912 763.044739,47.409996 
	C762.855286,42.805187 763.019775,38.186165 762.999207,33.573578 
	C762.986267,30.676477 763.666565,28.034672 765.939514,25.493170 
	C766.320557,25.209965 766.707336,25.136316 766.822754,24.976839 
	C767.911865,24.021973 769.110352,24.035049 770.608093,23.816475 
	C773.018372,23.797300 775.086121,23.854107 777.593628,23.853956 
	C780.218018,24.037254 782.469666,23.965307 784.792480,25.300417 
	C785.478821,25.631300 785.818909,25.835932 786.452026,26.101707 
	C787.491455,26.443382 787.993286,27.053852 788.830444,27.698177 
	C789.717102,28.704819 790.366394,29.545269 791.219482,30.633568 
	C792.287170,32.479397 792.906982,34.181408 793.544373,36.212349 
	C793.552979,37.162579 793.568909,37.773243 793.684021,38.674637 
	C794.093750,41.094120 794.059204,43.226543 793.766113,45.752670 
z"/>
<path fill="#BFBFBF" opacity="1.000000" stroke="none" 
	d="
M765.940796,25.156309 
	C764.432129,27.664396 763.876038,30.475454 763.895874,33.517368 
	C763.953735,42.394623 763.925171,51.272442 763.882446,60.622810 
	C761.710754,60.637127 762.187378,58.903111 762.180176,57.520393 
	C762.137024,49.278561 762.018066,41.032852 762.230042,32.796307 
	C762.303040,29.960653 762.369873,26.756142 765.940796,25.156309 
z"/>
<path fill="#BFBFBF" opacity="1.000000" stroke="none" 
	d="
M763.973999,61.564632 
	C767.684753,61.210636 771.471619,61.246117 775.700073,61.455975 
	C772.168945,63.893913 768.119812,63.306248 763.973999,61.564632 
z"/>
<path fill="#BFBFBF" opacity="1.000000" stroke="none" 
	d="
M790.304749,55.949066 
	C790.907043,53.482197 791.862854,51.001404 793.094116,48.292881 
	C794.300476,51.320530 793.008972,53.810284 790.304749,55.949066 
z"/>
<path fill="#BFBFBF" opacity="1.000000" stroke="none" 
	d="
M793.979370,45.963509 
	C792.899658,44.011059 793.460693,41.819569 793.591980,39.310139 
	C795.664856,41.113232 795.003662,43.445515 793.979370,45.963509 
z"/>
<path fill="#BFBFBF" opacity="1.000000" stroke="none" 
	d="
M785.045654,25.104141 
	C782.954346,25.041134 780.769897,24.655600 778.309448,24.033531 
	C780.615601,22.186571 782.825623,23.191999 785.045654,25.104141 
z"/>
<path fill="#BFBFBF" opacity="1.000000" stroke="none" 
	d="
M780.269287,61.537651 
	C781.810303,60.555141 783.566223,59.827206 785.689575,59.134056 
	C784.963745,61.667038 782.681091,61.638550 780.269287,61.537651 
z"/>
<path fill="#BFBFBF" opacity="1.000000" stroke="none" 
	d="
M793.700684,36.190811 
	C792.064148,35.218616 792.300171,33.120125 791.365356,31.226671 
	C793.817871,31.751043 793.848755,33.786587 793.700684,36.190811 
z"/>
<path fill="#BFBFBF" opacity="1.000000" stroke="none" 
	d="
M770.730347,23.495308 
	C769.851990,24.131842 768.753357,24.523190 767.296387,24.865950 
	C767.350098,22.520287 768.993896,23.030752 770.730347,23.495308 
z"/>
<path fill="#BFBFBF" opacity="1.000000" stroke="none" 
	d="
M787.057739,58.885101 
	C787.574707,57.889336 788.450684,56.976761 789.644043,56.007355 
	C790.034363,57.733234 789.053589,58.627392 787.057739,58.885101 
z"/>
<path fill="#BFBFBF" opacity="1.000000" stroke="none" 
	d="
M789.052612,27.518177 
	C788.352112,27.498886 787.636353,27.133375 786.832886,26.465355 
	C787.798889,25.841330 788.522156,26.270369 789.052612,27.518177 
z"/>
<path fill="#050505" opacity="1.000000" stroke="none" 
	d="
M968.648438,41.027493 
	C968.757019,41.354568 968.848267,41.732208 969.013916,41.833691 
	C970.932922,44.435760 971.949890,47.339134 973.475159,50.266144 
	C973.552734,51.512486 973.704346,52.416721 973.989624,53.638916 
	C974.726074,54.640427 974.990784,55.446079 974.994751,56.674065 
	C975.020508,57.432831 975.038635,57.866211 975.169678,58.606323 
	C976.617065,64.649353 975.990906,70.431190 975.482056,76.645844 
	C975.177673,77.507652 975.075317,77.929222 974.998657,78.677292 
	C974.995361,79.566536 974.871765,80.103844 974.480713,80.853775 
	C974.116150,82.002769 973.865906,82.897949 973.607910,84.145203 
	C972.017639,87.877380 971.323975,91.703728 968.354736,94.774948 
	C968.130554,95.049652 967.808899,95.230049 967.761719,95.408333 
	C967.197632,97.362457 965.525940,98.194481 964.270874,99.786163 
	C963.783020,100.216209 963.507263,100.400467 963.128113,100.814995 
	C960.936035,103.086594 958.882080,105.170700 955.932495,106.637482 
	C955.605652,106.718369 955.244995,106.768463 955.133545,106.912399 
	C951.361694,109.662605 947.111816,110.471352 942.412109,111.122192 
	C941.296082,111.185799 940.560303,111.194931 939.470825,111.312744 
	C936.697510,112.293541 934.230103,112.064636 931.322693,111.576431 
	C929.196594,111.302116 927.506348,111.192238 925.394287,111.135941 
	C917.781372,110.553749 916.192200,108.898865 915.942566,101.414200 
	C915.962219,80.982178 916.008179,60.949810 915.983765,40.452648 
	C916.012878,38.885651 916.018433,37.782185 915.926880,36.347900 
	C915.943542,35.258598 915.990845,34.499226 915.973511,33.363441 
	C916.062988,31.076199 915.802734,29.056419 917.554932,27.212978 
	C918.057434,26.717512 918.353943,26.520744 918.802246,26.101480 
	C919.753418,25.279146 920.598083,24.455198 921.528259,24.427004 
	C934.169922,24.043840 947.152710,21.633030 958.726074,30.512844 
	C959.078125,30.775906 959.305176,31.103889 959.498535,31.152752 
	C963.317139,33.738308 966.077515,37.080544 968.648438,41.027493 
z"/>
<path fill="#BFBFBF" opacity="1.000000" stroke="none" 
	d="
M959.064697,30.432865 
	C948.709167,24.405712 937.299011,23.664837 925.595886,24.669262 
	C923.643860,24.836790 921.729431,25.440756 919.375854,25.861019 
	C919.111877,23.925404 920.771545,23.327879 922.117188,23.310371 
	C933.285889,23.165066 944.703308,21.118107 955.157349,27.149727 
	C956.576843,27.968708 958.226013,28.483761 959.064697,30.432865 
z"/>
<path fill="#BFBFBF" opacity="1.000000" stroke="none" 
	d="
M975.654297,76.972122 
	C975.212952,71.333710 975.899170,65.570114 975.152771,59.371422 
	C978.042297,60.174606 976.859436,62.707378 976.851501,64.620338 
	C976.834534,68.700493 977.814209,72.889389 975.654297,76.972122 
z"/>
<path fill="#BFBFBF" opacity="1.000000" stroke="none" 
	d="
M915.642029,101.269333 
	C916.533936,106.186180 918.035645,110.584991 924.689758,110.957916 
	C918.307800,112.903343 914.683533,109.256180 915.642029,101.269333 
z"/>
<path fill="#BFBFBF" opacity="1.000000" stroke="none" 
	d="
M968.831116,40.988403 
	C965.775269,38.196091 962.793579,35.037594 959.751892,31.540356 
	C964.506470,32.636719 967.018433,36.323750 968.831116,40.988403 
z"/>
<path fill="#BFBFBF" opacity="1.000000" stroke="none" 
	d="
M942.264893,111.459045 
	C946.108276,109.787155 950.184631,108.397636 954.641479,107.032227 
	C951.918762,111.482292 947.030823,111.137459 942.264893,111.459045 
z"/>
<path fill="#BFBFBF" opacity="1.000000" stroke="none" 
	d="
M968.478516,95.036530 
	C969.754272,91.649643 971.377991,88.249657 973.300964,84.673462 
	C973.490906,88.678032 971.939270,92.204720 968.478516,95.036530 
z"/>
<path fill="#BFBFBF" opacity="1.000000" stroke="none" 
	d="
M955.970703,106.814522 
	C957.851868,104.842499 960.098022,102.966606 962.684448,101.067993 
	C962.198547,104.600906 959.358765,105.860283 955.970703,106.814522 
z"/>
<path fill="#BFBFBF" opacity="1.000000" stroke="none" 
	d="
M931.014099,111.746445 
	C933.306335,110.515175 935.795715,111.235336 938.682495,111.257607 
	C936.644043,113.884544 933.881775,112.850327 931.014099,111.746445 
z"/>
<path fill="#BFBFBF" opacity="1.000000" stroke="none" 
	d="
M973.555176,50.243355 
	C971.170227,48.389587 970.746826,45.202496 969.158691,42.292915 
	C972.369934,43.624653 972.824280,46.874317 973.555176,50.243355 
z"/>
<path fill="#BFBFBF" opacity="1.000000" stroke="none" 
	d="
M917.407593,26.921913 
	C917.279724,28.747967 916.798584,30.581657 916.113159,32.701195 
	C914.398560,30.610134 914.784546,28.591778 917.407593,26.921913 
z"/>
<path fill="#BFBFBF" opacity="1.000000" stroke="none" 
	d="
M964.419434,100.045166 
	C964.433899,98.163223 966.084839,97.185623 967.387085,95.661171 
	C968.105347,97.975578 966.545471,99.084435 964.419434,100.045166 
z"/>
<path fill="#BFBFBF" opacity="1.000000" stroke="none" 
	d="
M915.635559,36.217716 
	C916.698120,37.107201 916.270447,38.330509 916.094971,39.747181 
	C914.613831,38.966637 914.972534,37.695332 915.635559,36.217716 
z"/>
<path fill="#BFBFBF" opacity="1.000000" stroke="none" 
	d="
M975.234802,56.805359 
	C974.640930,56.200249 974.279480,55.401062 974.020630,54.279373 
	C975.827820,54.205509 975.971619,55.244289 975.234802,56.805359 
z"/>
<path fill="#BFBFBF" opacity="1.000000" stroke="none" 
	d="
M974.636841,81.094376 
	C974.437500,80.542038 974.508667,79.976494 974.802124,79.207367 
	C976.106323,79.759483 975.661438,80.429054 974.636841,81.094376 
z"/>
<path fill="#161616" opacity="1.000000" stroke="none" 
	d="
M477.260681,52.258141 
	C478.991119,47.722008 480.589661,43.550648 482.154816,39.466476 
	C484.376099,39.570522 484.325653,41.241138 484.717834,42.349991 
	C487.824005,51.132565 490.760162,59.975876 493.925140,68.736717 
	C494.969574,71.627693 494.293915,72.709274 491.245544,72.668800 
	C485.255615,72.589279 479.263214,72.583763 473.273285,72.662094 
	C470.261658,72.701469 469.983795,71.493919 470.988190,68.975342 
	C473.144592,63.568222 475.094391,58.078701 477.260681,52.258141 
z"/>
<path fill="#090909" opacity="1.000000" stroke="none" 
	d="
M42.974609,117.925613 
	C54.841114,116.635674 64.170677,110.968292 72.457253,103.171211 
	C73.643707,102.054848 74.985840,101.103943 76.598862,100.051918 
	C77.338432,100.378952 77.668350,100.784805 78.072662,101.613449 
	C78.357208,103.776924 79.311913,105.528046 78.282005,107.698296 
	C76.908775,115.318672 72.102531,119.565674 65.934937,122.784981 
	C61.048199,125.335709 55.748283,126.749191 50.321636,128.874344 
	C49.568863,129.513306 49.258270,130.069000 48.504463,130.628754 
	C48.033440,130.849091 47.837059,130.918610 47.338608,131.064423 
	C46.224155,131.304932 45.409081,131.427597 44.290482,131.189911 
	C39.077087,131.826218 35.234840,134.798996 31.237282,137.398163 
	C27.891994,139.573242 24.509495,141.611252 20.292824,142.815552 
	C18.383923,144.472015 16.663439,144.468521 14.531544,143.097382 
	C14.168996,142.054382 14.118111,141.355637 13.921671,140.338257 
	C12.494846,138.329865 12.509676,136.385117 12.762213,134.014465 
	C12.991707,132.032135 13.366719,130.482895 13.627773,128.519012 
	C13.768829,127.611534 13.936961,127.119423 14.360119,126.306686 
	C16.053190,116.567307 20.175385,109.046631 29.705429,104.987305 
	C31.128252,103.771339 32.321381,102.910400 34.347107,103.672791 
	C32.482941,107.375931 30.246778,110.835999 27.981405,114.647873 
	C28.225657,115.214745 28.465372,115.462456 28.796221,115.970596 
	C32.559578,117.561043 36.428032,117.171677 40.583702,117.765259 
	C41.430130,118.060089 41.801479,118.363014 42.149055,118.698265 
	C42.587238,119.120918 43.174835,119.359207 43.562176,119.844421 
	C43.326767,119.265732 42.710037,118.874496 42.974609,117.925613 
z"/>
<path fill="#A4A4A4" opacity="1.000000" stroke="none" 
	d="
M14.102794,143.162186 
	C15.857430,143.324051 17.499496,142.969147 19.547916,142.860260 
	C20.997616,144.482819 22.661148,143.816696 24.436401,144.097885 
	C25.306423,144.411499 25.482708,144.851868 25.007507,145.616669 
	C22.243141,145.860291 19.815231,145.932587 17.387087,145.941666 
	C15.728256,145.947876 14.006107,145.955917 14.102794,143.162186 
z"/>
<path fill="#E8E8E8" opacity="1.000000" stroke="none" 
	d="
M44.160011,131.413589 
	C44.784817,130.705826 45.566460,130.332062 46.676464,129.989227 
	C47.242973,130.339798 47.524364,130.400635 47.965027,129.920837 
	C48.539967,129.434235 49.005623,129.189087 49.738876,129.006073 
	C49.463314,130.811081 51.415310,131.805038 51.416714,133.661377 
	C48.719315,133.952423 45.977657,135.115555 44.160011,131.413589 
z"/>
<path fill="#E8E8E8" opacity="1.000000" stroke="none" 
	d="
M35.042557,103.962234 
	C33.409348,104.191704 32.099590,104.467537 30.384335,104.753334 
	C30.137177,103.386040 29.510345,101.605385 31.543129,101.113708 
	C33.582214,100.620514 35.906609,101.146156 37.047249,102.467941 
	C38.425800,104.065422 36.283363,103.796967 35.042557,103.962234 
z"/>
<path fill="#E8E8E8" opacity="1.000000" stroke="none" 
	d="
M13.594702,132.820618 
	C13.884973,135.091476 13.860541,137.117325 13.806114,139.581390 
	C8.872725,139.436768 11.492932,135.986710 11.581728,133.313721 
	C12.237413,132.626724 12.719181,132.475372 13.594702,132.820618 
z"/>
<path fill="#BDBDBD" opacity="1.000000" stroke="none" 
	d="
M78.454269,107.971947 
	C77.809784,106.240089 77.557571,104.457268 77.368774,102.294121 
	C78.021072,101.364716 78.698364,101.290009 79.723389,101.760925 
	C79.603394,103.957581 81.347939,106.355339 78.454269,107.971947 
z"/>
<path fill="#888888" opacity="1.000000" stroke="none" 
	d="
M14.003326,132.686203 
	C13.448217,133.077148 12.987030,133.088669 12.180269,133.064941 
	C11.852143,131.282852 11.869591,129.536011 11.861687,127.353600 
	C12.725795,126.338760 13.409284,126.901093 14.335445,127.554016 
	C15.401449,129.388779 14.143662,130.786682 14.003326,132.686203 
z"/>
<path fill="#E8E8E8" opacity="1.000000" stroke="none" 
	d="
M80.015503,101.629234 
	C79.366066,101.943787 78.721573,101.906075 77.754639,101.891075 
	C77.281075,101.504120 77.129967,101.094444 76.960327,100.356071 
	C77.816231,99.695053 78.072090,98.093590 79.264397,98.624092 
	C80.342735,99.103897 79.907455,100.341217 80.015503,101.629234 
z"/>
<path fill="#535353" opacity="1.000000" stroke="none" 
	d="
M42.952873,117.507645 
	C43.366169,118.716759 44.208488,119.137947 45.089603,119.607979 
	C43.484161,119.935783 41.845467,120.834717 41.037888,118.211967 
	C41.556801,117.679817 42.125347,117.505264 42.952873,117.507645 
z"/>
<path fill="#E8E8E8" opacity="1.000000" stroke="none" 
	d="
M14.611971,127.474350 
	C13.835039,127.551010 13.116119,127.323486 12.116766,127.007004 
	C11.674051,126.512138 11.255283,125.910835 11.391352,125.732239 
	C12.237823,124.621162 13.097219,125.776924 14.254632,125.897400 
	C14.582783,126.363426 14.626383,126.766800 14.611971,127.474350 
z"/>
<path fill="#E8E8E8" opacity="1.000000" stroke="none" 
	d="
M25.003807,145.848328 
	C24.731216,145.434509 24.791286,145.054108 24.833185,144.385483 
	C25.385885,144.305069 26.306026,144.375595 26.453178,144.749939 
	C26.738464,145.475708 26.029957,145.798828 25.003807,145.848328 
z"/>
<path fill="#E8E8E8" opacity="1.000000" stroke="none" 
	d="
M28.851864,115.934387 
	C28.483505,116.027069 28.045902,115.855789 27.780251,115.342094 
	C28.229006,115.223267 28.505814,115.446846 28.851864,115.934387 
z"/>
<path fill="#FCFCFC" opacity="1.000000" stroke="none" 
	d="
M402.310150,103.949631 
	C401.996674,102.284035 402.021210,100.567856 402.100586,98.426208 
	C405.679047,99.686165 405.606293,101.672081 402.310150,103.949631 
z"/>
<path fill="#FCFCFC" opacity="1.000000" stroke="none" 
	d="
M408.829468,102.138824 
	C408.251068,101.282135 408.160522,100.560211 409.031250,100.437859 
	C409.975159,100.305191 410.655243,100.980080 410.529572,101.925560 
	C410.412964,102.802567 409.689728,102.707703 408.829468,102.138824 
z"/>
<path fill="#FAFAFA" opacity="1.000000" stroke="none" 
	d="
M428.171600,114.537048 
	C427.182495,114.803665 426.438599,114.806580 425.335876,114.704460 
	C424.984985,114.281914 424.990021,113.964355 424.991516,113.408112 
	C425.746002,113.071823 426.501160,112.974167 427.635498,112.923904 
	C428.359253,113.340294 428.482880,113.777527 428.171600,114.537048 
z"/>
<path fill="#FCFCFC" opacity="1.000000" stroke="none" 
	d="
M416.918701,113.805191 
	C416.208710,114.161064 415.470612,114.168831 414.365906,114.128593 
	C414.515198,111.795830 415.425690,111.341057 416.918701,113.805191 
z"/>
<path fill="#FCFCFC" opacity="1.000000" stroke="none" 
	d="
M414.027954,100.029427 
	C413.915070,100.663261 413.884247,101.376747 413.085754,101.489418 
	C412.910065,101.514206 412.681061,101.161583 412.476593,100.982773 
	C412.786102,100.675697 413.095581,100.368614 413.679352,100.008591 
	C413.953613,99.955658 414.003601,100.004425 414.027954,100.029427 
z"/>
<path fill="#FAFAFA" opacity="1.000000" stroke="none" 
	d="
M725.622070,42.298004 
	C724.088867,32.673862 718.494324,26.838961 709.287537,24.248577 
	C703.561829,22.637619 697.710327,23.112394 691.911499,23.344599 
	C688.174438,23.494242 686.292603,25.952576 686.294617,29.686075 
	C686.307739,53.831188 686.346130,77.976295 686.368958,102.121399 
	C686.373718,107.152832 688.911194,110.141647 693.663940,111.540619 
	C695.990723,112.225510 698.549622,112.239700 700.620300,114.202217 
	C687.241943,114.149612 673.880432,113.857338 660.221619,114.760193 
	C660.880554,112.199051 662.922302,112.667778 664.250916,112.307205 
	C672.776001,109.993515 674.534546,107.947792 674.583008,99.039177 
	C674.665405,83.886063 674.609863,68.732201 674.611267,53.578651 
	C674.611938,46.085136 674.696899,38.590302 674.582336,31.098528 
	C674.489929,25.059189 672.713928,23.491659 666.826416,23.182449 
	C654.176208,22.518074 643.284790,26.179708 634.394836,35.979908 
	C634.724548,30.453043 635.845703,25.292898 638.315430,20.561556 
	C639.189636,18.886812 641.401062,19.741987 642.975891,19.866547 
	C663.256897,21.470686 683.567139,20.918575 703.869385,20.700813 
	C709.350403,20.642027 714.824707,20.063478 720.305298,19.787809 
	C721.567444,19.724329 723.511414,19.290895 723.725464,20.934566 
	C724.633850,27.908234 727.811279,34.593132 726.153809,42.141464 
	C725.827759,42.429768 725.687012,42.347347 725.622070,42.298004 
z"/>
<path fill="#FAFAFA" opacity="1.000000" stroke="none" 
	d="
M632.323853,40.597786 
	C632.304443,40.368790 632.392151,40.285896 632.479797,40.202999 
	C632.550598,40.300098 632.683167,40.402946 632.674805,40.492695 
	C632.666382,40.583195 632.518005,40.660690 632.323853,40.597786 
z"/>
<path fill="#E4E4E4" opacity="1.000000" stroke="none" 
	d="
M387.490051,114.866837 
	C387.187042,114.448555 387.167023,114.100449 387.193573,113.494644 
	C387.915619,113.124046 388.591064,113.011154 389.609619,112.907448 
	C389.963440,113.187111 389.974182,113.457588 389.965820,114.137825 
	C389.222137,114.677399 388.497589,114.807213 387.490051,114.866837 
z"/>
<path fill="#E4E4E4" opacity="1.000000" stroke="none" 
	d="
M428.254578,114.847443 
	C427.949310,114.394867 427.972198,113.988991 428.004883,113.277206 
	C428.591431,113.210548 429.490906,113.307121 429.673645,113.720543 
	C429.994843,114.447144 429.296234,114.806969 428.254578,114.847443 
z"/>
<path fill="#E4E4E4" opacity="1.000000" stroke="none" 
	d="
M148.189194,58.975403 
	C148.978683,64.475342 148.627151,70.903069 144.647171,72.822876 
	C141.862228,74.166229 137.373276,68.454132 132.909973,65.629280 
	C136.551819,64.062141 139.376236,62.846756 142.127701,61.662754 
	C142.230347,60.331234 141.286758,59.763077 140.660812,59.032085 
	C133.433792,50.592232 133.117889,43.728584 139.346207,34.768349 
	C140.714844,32.799400 141.496994,32.615757 142.798752,34.713902 
	C144.801956,37.942665 146.964859,41.072350 149.237335,44.512489 
	C146.047470,45.926716 143.105148,47.231194 139.669907,48.754204 
	C143.134140,51.857075 146.991821,54.132526 148.189194,58.975403 
z"/>
<path fill="#F7F7F7" opacity="1.000000" stroke="none" 
	d="
M47.774414,129.662491 
	C47.809906,129.889923 47.545502,130.100479 47.142960,130.165588 
	C47.161392,129.895294 47.317955,129.770447 47.774414,129.662491 
z"/>
</svg>